<svg width="40" height="40" viewBox="0 0 40 40" fill="none" xmlns="http://www.w3.org/2000/svg">
<path d="M0 4C0 1.79086 1.79086 0 4 0H36C38.2091 0 40 1.79086 40 4V35V36C40 38.2091 38.2091 40 36 40H35H4C1.79086 40 0 38.2091 0 36V4Z" fill="url(#paint0_linear_601_15)"/>
<path d="M17.0606 27.4856H18.5519C19.6786 27.4856 20.6838 27.3088 21.5675 26.9553C22.4512 26.6019 23.1913 26.1158 23.7878 25.4972C24.4064 24.8786 24.8703 24.1496 25.1796 23.3101C25.511 22.4485 25.6767 21.5095 25.6767 20.4933C25.6767 19.4991 25.511 18.5712 25.1796 17.7096C24.8482 16.848 24.3732 16.1079 23.7546 15.4893C23.1581 14.8708 22.418 14.3847 21.5343 14.0312C20.6506 13.6778 19.6565 13.501 18.5519 13.501H17.0606V18L17 23L17.0606 27.4856ZM10.5654 8H20.1757C21.8768 8 23.4674 8.34243 24.9476 9.0273C26.4499 9.71217 27.7534 10.629 28.858 11.7778C29.9847 12.9045 30.8684 14.2301 31.5091 15.7545C32.1498 17.2567 32.4701 18.8364 32.4701 20.4933C32.4701 22.1281 32.1498 23.7077 31.5091 25.2321C30.8905 26.7344 30.0179 28.06 28.8911 29.2088C27.7865 30.3576 26.4831 31.2744 24.9808 31.9593C23.5006 32.6442 21.8989 32.9866 20.1757 32.9866H10.5654V8Z" fill="url(#paint1_linear_601_15)"/>
<path d="M17.0606 27.4856H18.5519C19.6786 27.4856 20.6838 27.3088 21.5675 26.9553C22.4512 26.6019 23.1913 26.1158 23.7878 25.4972C24.4064 24.8786 24.8703 24.1496 25.1796 23.3101C25.511 22.4485 25.6767 21.5095 25.6767 20.4933C25.6767 19.4991 25.511 18.5712 25.1796 17.7096C24.8482 16.848 24.3732 16.1079 23.7546 15.4893C23.1581 14.8708 22.418 14.3847 21.5343 14.0312C20.6506 13.6778 19.6565 13.501 18.5519 13.501H17.0606V18L17 23L17.0606 27.4856ZM10.5654 8H20.1757C21.8768 8 23.4674 8.34243 24.9476 9.0273C26.4499 9.71217 27.7534 10.629 28.858 11.7778C29.9847 12.9045 30.8684 14.2301 31.5091 15.7545C32.1498 17.2567 32.4701 18.8364 32.4701 20.4933C32.4701 22.1281 32.1498 23.7077 31.5091 25.2321C30.8905 26.7344 30.0179 28.06 28.8911 29.2088C27.7865 30.3576 26.4831 31.2744 24.9808 31.9593C23.5006 32.6442 21.8989 32.9866 20.1757 32.9866H10.5654V8Z" fill="white" fill-opacity="0.2"/>
<path fill-rule="evenodd" clip-rule="evenodd" d="M16.5519 27.4856H15.0606V13.501H16.5519C17.6565 13.501 18.6506 13.6778 19.5343 14.0312C20.418 14.3847 21.1581 14.8708 21.7546 15.4893C22.3732 16.1079 22.8482 16.848 23.1796 17.7096C23.511 18.5712 23.6767 19.4991 23.6767 20.4933C23.6767 21.5095 23.511 22.4485 23.1796 23.3101C22.8703 24.1496 22.4064 24.8786 21.7878 25.4972C21.1913 26.1158 20.4512 26.6019 19.5675 26.9553C18.6838 27.3088 17.6786 27.4856 16.5519 27.4856ZM18.1757 8H8.56543V32.9866H18.1757C19.8989 32.9866 21.5006 32.6442 22.9808 31.9593C24.4831 31.2744 25.7865 30.3576 26.8911 29.2088C28.0179 28.06 28.8905 26.7344 29.5091 25.2321C30.1498 23.7077 30.4701 22.1281 30.4701 20.4933C30.4701 18.8364 30.1498 17.2567 29.5091 15.7545C28.8684 14.2301 27.9847 12.9045 26.858 11.7778C25.7534 10.629 24.4499 9.71217 22.9476 9.0273C21.4674 8.34243 19.8768 8 18.1757 8Z" fill="white"/>
<defs>
<linearGradient id="paint0_linear_601_15" x1="-1.49012e-07" y1="20" x2="40" y2="20" gradientUnits="userSpaceOnUse">
<stop stop-color="#FDDB5B"/>
<stop offset="1" stop-color="#FAB935"/>
</linearGradient>
<linearGradient id="paint1_linear_601_15" x1="21.5178" y1="8" x2="21.5178" y2="32.9866" gradientUnits="userSpaceOnUse">
<stop stop-color="#FFE07E"/>
<stop offset="1" stop-color="#FFC200"/>
</linearGradient>
</defs>
</svg>
