<svg width="48" height="48" viewBox="0 0 48 48" fill="none" xmlns="http://www.w3.org/2000/svg">
<g clip-path="url(#clip0_2006_2464)">
<path d="M41.1747 19.8621H6.23706C5.99692 19.8621 5.8072 19.6583 5.82432 19.4188L6.17899 14.4533C6.19446 14.2367 6.37464 14.069 6.59174 14.069H41.3629C41.5976 14.069 41.7853 14.2639 41.7763 14.4984L41.5882 19.4639C41.5797 19.6862 41.3971 19.8621 41.1747 19.8621Z" fill="#EDC472" stroke="black"/>
<path d="M5.735 17.6621C5.39472 20.0228 5.3983 33.2519 5.74553 35.7379C5.76848 35.9022 5.89905 36.018 6.06405 36.0358C6.99959 36.1363 8.07873 36.0321 9.10328 36.0057C9.33169 35.9998 9.52063 35.8153 9.52675 35.5868C9.58543 33.3836 9.87781 23.1324 9.54231 17.7598C9.52882 17.5431 9.34915 17.3793 9.13208 17.3793H6.09035C5.91225 17.3793 5.76041 17.4859 5.735 17.6621Z" fill="#F5DEB2" stroke="black"/>
<path d="M9.10315 35.5862C9.51694 34.7586 9.51694 17.7931 9.10315 17.3793C8.3003 17.288 7.03418 17.3793 7.03418 17.3793V35.5862C7.03418 35.5862 8.3003 35.6774 9.10315 35.5862Z" fill="#EDCE91"/>
<path d="M13.5967 17.6621C13.2477 20.0223 13.1649 33.2516 13.505 35.7379C13.5274 35.9023 13.658 36.0181 13.823 36.0359C14.7585 36.1363 15.8377 36.0321 16.8622 36.0057C17.0907 35.9999 17.2805 35.8154 17.2882 35.587C17.3624 33.3839 17.7363 23.1325 17.4046 17.7599C17.3913 17.5432 17.2113 17.3793 16.9942 17.3793H13.9529C13.7748 17.3793 13.6228 17.4859 13.5967 17.6621Z" fill="#F5DEB2" stroke="black"/>
<path d="M16.9655 35.5862C16.9655 35.1724 17.3792 17.7931 16.9655 17.3793C16.1626 17.288 14.8965 17.3793 14.8965 17.3793V35.5862C14.8965 35.5862 16.0048 35.7176 16.9655 35.5862Z" fill="#EDCE91"/>
<path d="M21.4608 17.6624C21.1311 20.0235 21.2385 33.2523 21.5944 35.738C21.618 35.9023 21.7485 36.0181 21.9135 36.0358C22.8491 36.1363 23.9282 36.0321 24.9527 36.0058C25.1811 35.9999 25.369 35.8153 25.3731 35.5868L25.3752 35.4729C25.4194 33.0509 25.602 23.0448 25.2674 17.7598C25.2536 17.5431 25.0741 17.3793 24.857 17.3793H21.8153C21.6372 17.3793 21.4854 17.4859 21.4608 17.6624Z" fill="#F5DEB2" stroke="black"/>
<path d="M24.828 35.5862C25.2418 35.1724 25.2418 18.6207 24.828 17.3793C25.5945 17.1238 23.1729 17.3793 23.1729 17.3793V35.5862C23.1729 35.5862 24.1842 35.6445 24.828 35.5862Z" fill="#EDCE91"/>
<path d="M29.3233 17.6625C28.9989 20.0238 29.1582 33.2525 29.5184 35.738C29.5422 35.9023 29.6728 36.0193 29.8385 36.0284C30.7741 36.0796 31.8531 35.6976 32.8776 35.6058C33.1052 35.5853 33.2944 35.4016 33.3007 35.1732C33.3601 33.0114 33.6511 23.1092 33.3162 17.76C33.3026 17.5434 33.123 17.3793 32.906 17.3793H29.6773C29.4992 17.3793 29.3474 17.486 29.3233 17.6625Z" fill="#F5DEB2" stroke="black"/>
<path d="M33.1039 35.5863V17.3794L30.6211 17.3793V35.5863C30.6211 35.5863 32.4601 35.6446 33.1039 35.5863Z" fill="#EDCE91"/>
<path d="M37.5987 17.6624C37.2708 20.0236 37.395 33.2524 37.7523 35.738C37.7759 35.9023 37.9065 36.018 38.0715 36.0358C39.007 36.1363 40.0861 36.0321 41.1107 36.0057C41.3392 35.9998 41.5268 35.8152 41.5306 35.5868L41.5321 35.4977C41.5722 33.1203 41.7418 23.0631 41.4052 17.7598C41.3915 17.5431 41.2119 17.3793 40.9948 17.3793H37.9531C37.775 17.3793 37.6232 17.4859 37.5987 17.6624Z" fill="#F5DEB2" stroke="black"/>
<path d="M40.9655 35.5862C40.9655 35.1724 41.3792 17.7931 40.9655 17.3793C40.1626 17.288 38.8965 17.3793 38.8965 17.3793V35.5862C38.8965 35.5862 40.0048 35.7176 40.9655 35.5862Z" fill="#EDCE91"/>
<path d="M4.96582 36V37.6551C4.96582 37.8836 5.15108 38.0689 5.37961 38.0689H9.51754C9.74604 38.0689 9.93134 37.8836 9.93134 37.6551V36C9.93134 35.7715 9.74604 35.5862 9.51754 35.5862H5.37961C5.15108 35.5862 4.96582 35.7715 4.96582 36Z" fill="#F5DEB2" stroke="black"/>
<path d="M12.8271 36V37.6551C12.8271 37.8836 13.0124 38.0689 13.2409 38.0689H17.3789C17.6074 38.0689 17.7927 37.8836 17.7927 37.6551V36C17.7927 35.7715 17.6074 35.5862 17.3789 35.5862H13.2409C13.0124 35.5862 12.8271 35.7715 12.8271 36Z" fill="#F5DEB2" stroke="black"/>
<path d="M20.8552 36V37.6551C20.8552 37.8836 21.0405 38.0689 21.269 38.0689H25.4069C25.6354 38.0689 25.8207 37.8836 25.8207 37.6551V36C25.8207 35.7715 25.6354 35.5862 25.4069 35.5862H21.269C21.0405 35.5862 20.8552 35.7715 20.8552 36Z" fill="#F5DEB2" stroke="black"/>
<path d="M28.8828 36V37.6551C28.8828 37.8836 29.068 38.0689 29.2966 38.0689H33.4345C33.663 38.0689 33.8483 37.8836 33.8483 37.6551V36C33.8483 35.7715 33.663 35.5862 33.4345 35.5862H29.2966C29.068 35.5862 28.8828 35.7715 28.8828 36Z" fill="#F5DEB2" stroke="black"/>
<path d="M37.1582 36V37.6551C37.1582 37.8836 37.3435 38.0689 37.572 38.0689H41.7099C41.9384 38.0689 42.1237 37.8836 42.1237 37.6551V36C42.1237 35.7715 41.9384 35.5862 41.7099 35.5862H37.572C37.3435 35.5862 37.1582 35.7715 37.1582 36Z" fill="#F5DEB2" stroke="black"/>
<path d="M37.1582 15.3104V16.9656C37.1582 17.1941 37.3435 17.3794 37.572 17.3794H41.7099C41.9384 17.3794 42.1237 17.1941 42.1237 16.9656V15.3104C42.1237 15.0819 41.9384 14.8966 41.7099 14.8966H37.572C37.3435 14.8966 37.1582 15.0819 37.1582 15.3104Z" fill="#F5DEB2" stroke="black"/>
<path d="M28.8828 15.3104V16.9656C28.8828 17.1941 29.068 17.3794 29.2966 17.3794H33.4345C33.663 17.3794 33.8483 17.1941 33.8483 16.9656V15.3104C33.8483 15.0819 33.663 14.8966 33.4345 14.8966H29.2966C29.068 14.8966 28.8828 15.0819 28.8828 15.3104Z" fill="#F5DEB2" stroke="black"/>
<path d="M20.8552 15.3103V16.9655C20.8552 17.194 21.0405 17.3793 21.269 17.3793H25.4069C25.6354 17.3793 25.8207 17.194 25.8207 16.9655V15.3103C25.8207 15.0818 25.6354 14.8965 25.4069 14.8965H21.269C21.0405 14.8965 20.8552 15.0818 20.8552 15.3103Z" fill="#F5DEB2" stroke="black"/>
<path d="M12.8271 15.3104V16.9656C12.8271 17.1941 13.0124 17.3794 13.2409 17.3794H17.3789C17.6074 17.3794 17.7927 17.1941 17.7927 16.9656V15.3104C17.7927 15.0819 17.6074 14.8966 17.3789 14.8966H13.2409C13.0124 14.8966 12.8271 15.0819 12.8271 15.3104Z" fill="#F5DEB2" stroke="black"/>
<path d="M4.96582 15.3104V16.9656C4.96582 17.1941 5.15108 17.3794 5.37961 17.3794H9.51754C9.74604 17.3794 9.93134 17.1941 9.93134 16.9656V15.3104C9.93134 15.0819 9.74604 14.8966 9.51754 14.8966H5.37961C5.15108 14.8966 4.96582 15.0819 4.96582 15.3104Z" fill="#F5DEB2" stroke="black"/>
<path d="M43.4482 37.6552H3.7241C3.49557 37.6552 3.3103 37.8404 3.3103 38.0689V43.0258C3.3103 43.2577 3.50086 43.4443 3.73272 43.4395L23.1724 43.0345H43.4482C43.6767 43.0345 43.862 42.8492 43.862 42.6207V38.0689C43.862 37.8404 43.6767 37.6552 43.4482 37.6552Z" fill="#EDC472" stroke="black"/>
<path d="M44.5666 40.9656H2.48313C2.2546 40.9656 2.06934 41.1509 2.06934 41.3794V44.6897C2.06934 44.9182 2.2546 45.1035 2.48313 45.1035H44.5666C44.795 45.1035 44.9803 44.9182 44.9803 44.6897V41.3794C44.9803 41.1509 44.795 40.9656 44.5666 40.9656Z" fill="#EDC472" stroke="black"/>
<path d="M2.9047 14.556L23.3693 2.20006C23.5026 2.11959 23.6698 2.12074 23.8019 2.20303L44.2665 14.9452C44.6214 15.1661 44.4621 15.7142 44.0439 15.7102L3.11467 15.324C2.69767 15.3201 2.5477 14.7716 2.9047 14.556Z" fill="#EDC472" stroke="black"/>
<path d="M16.0522 10.6633L23.3576 5.94056C23.4961 5.85102 23.6746 5.85228 23.8118 5.94377L31.1172 10.814C31.4597 11.0424 31.295 11.5762 30.8835 11.5721L16.2726 11.4245C15.8624 11.4204 15.7076 10.886 16.0522 10.6633Z" fill="#CBA863" stroke="black"/>
<path d="M31.0349 11.1724L23.5866 6.20691L23.1729 6.6207L28.966 11.1724H31.0349Z" fill="#BC9B5B"/>
</g>
<defs>
<clipPath id="clip0_2006_2464">
<rect width="48" height="48" fill="white"/>
</clipPath>
</defs>
</svg>
