<svg width="325" height="33" viewBox="0 0 325 33" fill="none" xmlns="http://www.w3.org/2000/svg">
    <path d="M6.3601 17.8402L5.0001 20.4002V29.0002H0.600098V1.00017H5.0001V13.2002L10.7601 1.00017H15.1601L9.0401 13.4802L15.1601 29.0002H10.6401L6.3601 17.8402Z" fill="#161717" />
    <path d="M17.6026 7.72018C17.6026 3.24017 19.9626 0.680176 24.2826 0.680176C28.6026 0.680176 30.9626 3.24017 30.9626 7.72018V22.2802C30.9626 26.7602 28.6026 29.3202 24.2826 29.3202C19.9626 29.3202 17.6026 26.7602 17.6026 22.2802V7.72018ZM22.0026 22.5602C22.0026 24.5602 22.8826 25.3202 24.2826 25.3202C25.6826 25.3202 26.5626 24.5602 26.5626 22.5602V7.44017C26.5626 5.44017 25.6826 4.68017 24.2826 4.68017C22.8826 4.68017 22.0026 5.44017 22.0026 7.44017V22.5602Z" fill="#161717" />
    <path d="M33.382 25.0402C35.382 25.0402 36.022 24.7602 36.102 22.1602L36.822 1.00017H49.262V29.0002H44.782V5.00017H40.942L40.462 21.9202C40.302 27.0402 38.462 29.0402 34.062 29.0402H33.382V25.0402Z" fill="#161717" />
    <path d="M52.1898 25.0402C54.1898 25.0402 54.8298 24.7602 54.9098 22.1602L55.6298 1.00017H68.0698V29.0002H63.5898V5.00017H59.7498L59.2698 21.9202C59.1098 27.0402 57.2698 29.0402 52.8698 29.0402H52.1898V25.0402Z" fill="#161717" />
    <path d="M76.6376 12.8002H82.6776V16.8002H76.6376V25.0002H84.2376V29.0002H72.2376V1.00017H84.2376V5.00017H76.6376V12.8002Z" fill="#161717" />
    <path d="M93.5242 17.8402L92.1642 20.4002V29.0002H87.7642V1.00017H92.1642V13.2002L97.9242 1.00017H102.324L96.2042 13.4802L102.324 29.0002H97.8042L93.5242 17.8402Z" fill="#161717" />
    <path d="M105.127 1.00017H109.527V25.0002H114.527V1.00017H119.007V25.0802H120.927V32.7602H116.647V29.0002H105.127V1.00017Z" fill="#161717" />
    <path d="M128.65 29.0002H124.13V1.00017H128.05V18.7202L129.65 12.5602L133.25 1.00017H138.09V29.0002H134.13V9.28017L132.33 16.1602L128.65 29.0002Z" fill="#161717" />
    <path d="M141.2 29.0002C141.64 27.9602 141.68 26.9602 141.68 25.6002V21.2802C141.68 18.3602 142.4 16.2402 144.6 15.3202C142.64 14.4002 141.72 12.5202 141.72 9.64017V7.44017C141.72 3.12018 143.68 1.00017 148.24 1.00017H154.88V29.0002H150.48V17.6002H148.96C146.96 17.6002 146.08 18.5602 146.08 21.1602V25.5602C146.08 27.8402 145.92 28.2802 145.68 29.0002H141.2ZM148.36 5.00017C146.8 5.00017 146.12 5.88018 146.12 7.88018V10.6402C146.12 12.8802 147.12 13.6002 148.76 13.6002H150.48V5.00017H148.36Z" fill="#161717" />
    <path d="M165.945 29.0002V1.00017H177.545V5.00017H170.345V29.0002H165.945Z" fill="#161717" />
    <path d="M187.794 1.00017C192.194 1.00017 194.354 3.44017 194.354 7.92018V11.5602C194.354 16.0402 192.194 18.4802 187.794 18.4802H185.714V29.0002H181.314V1.00017H187.794ZM185.714 5.00017V14.4802H187.794C189.194 14.4802 189.954 13.8402 189.954 11.8402V7.64017C189.954 5.64017 189.194 5.00017 187.794 5.00017H185.714Z" fill="#161717" />
    <path d="M201.592 12.8002H207.632V16.8002H201.592V25.0002H209.192V29.0002H197.192V1.00017H209.192V5.00017H201.592V12.8002Z" fill="#161717" />
    <path d="M225.479 18.5602V22.2802C225.479 26.7602 223.239 29.3202 218.919 29.3202C214.599 29.3202 212.359 26.7602 212.359 22.2802V7.72018C212.359 3.24017 214.599 0.680176 218.919 0.680176C223.239 0.680176 225.479 3.24017 225.479 7.72018V10.4402H221.319V7.44017C221.319 5.44017 220.439 4.68017 219.039 4.68017C217.639 4.68017 216.759 5.44017 216.759 7.44017V22.5602C216.759 24.5602 217.639 25.2802 219.039 25.2802C220.439 25.2802 221.319 24.5602 221.319 22.5602V18.5602H225.479Z" fill="#161717" />
    <path d="M241.709 18.5602V22.2802C241.709 26.7602 239.469 29.3202 235.149 29.3202C230.829 29.3202 228.589 26.7602 228.589 22.2802V7.72018C228.589 3.24017 230.829 0.680176 235.149 0.680176C239.469 0.680176 241.709 3.24017 241.709 7.72018V10.4402H237.549V7.44017C237.549 5.44017 236.669 4.68017 235.269 4.68017C233.869 4.68017 232.989 5.44017 232.989 7.44017V22.5602C232.989 24.5602 233.869 25.2802 235.269 25.2802C236.669 25.2802 237.549 24.5602 237.549 22.5602V18.5602H241.709Z" fill="#161717" />
    <path d="M249.578 12.8002H255.618V16.8002H249.578V25.0002H257.178V29.0002H245.178V1.00017H257.178V5.00017H249.578V12.8002Z" fill="#161717" />
    <path d="M267.185 1.00017C271.585 1.00017 273.745 3.44017 273.745 7.92018V11.5602C273.745 16.0402 271.585 18.4802 267.185 18.4802H265.105V29.0002H260.705V1.00017H267.185ZM265.105 5.00017V14.4802H267.185C268.585 14.4802 269.345 13.8402 269.345 11.8402V7.64017C269.345 5.64017 268.585 5.00017 267.185 5.00017H265.105Z" fill="#161717" />
    <path d="M276.223 7.72018C276.223 3.24017 278.583 0.680176 282.903 0.680176C287.223 0.680176 289.583 3.24017 289.583 7.72018V22.2802C289.583 26.7602 287.223 29.3202 282.903 29.3202C278.583 29.3202 276.223 26.7602 276.223 22.2802V7.72018ZM280.623 22.5602C280.623 24.5602 281.503 25.3202 282.903 25.3202C284.303 25.3202 285.183 24.5602 285.183 22.5602V7.44017C285.183 5.44017 284.303 4.68017 282.903 4.68017C281.503 4.68017 280.623 5.44017 280.623 7.44017V22.5602Z" fill="#161717" />
    <path d="M299.882 1.00017C304.442 1.00017 306.402 3.12018 306.402 7.44017V8.44018C306.402 11.3202 305.522 13.1602 303.562 14.0802C305.922 15.0002 306.842 17.1202 306.842 20.0802V22.3602C306.842 26.6802 304.562 29.0002 300.162 29.0002H293.242V1.00017H299.882ZM297.642 5.00017V12.4002H299.362C301.002 12.4002 302.002 11.6802 302.002 9.44018V7.88018C302.002 5.88018 301.322 5.00017 299.762 5.00017H297.642ZM297.642 16.4002V25.0002H300.162C301.642 25.0002 302.442 24.3202 302.442 22.2402V19.8002C302.442 17.2002 301.602 16.4002 299.602 16.4002H297.642Z" fill="#161717" />
    <path d="M324.532 29.0002H320.092L319.332 23.9202H313.932L313.172 29.0002H309.132L313.612 1.00017H320.052L324.532 29.0002ZM314.492 20.1202H318.732L316.612 5.96017L314.492 20.1202Z" fill="#161717" />
</svg>
