<svg xmlns="http://www.w3.org/2000/svg">
    <symbol id="arrow-right" viewBox="0 0 24 24" fill="none" xmlns="http://www.w3.org/2000/svg">
        <path d="M9 17L13.6464 12.3536C13.8417 12.1583 13.8417 11.8417 13.6464 11.6464L9 7" stroke="#404143" stroke-width="1.5" stroke-linecap="round" />
    </symbol>
    <symbol id="arrow-left" viewBox="0 0 24 24" fill="none" xmlns="http://www.w3.org/2000/svg">
        <path d="M14 17L9.35355 12.3536C9.15829 12.1583 9.15829 11.8417 9.35355 11.6464L14 7" stroke="#404143" stroke-width="1.5" stroke-linecap="round" />
    </symbol>
    <symbol id="arrow-down" viewBox="0 0 16 16" fill="none" xmlns="http://www.w3.org/2000/svg">
        <path d="M11.3332 6.3335L7.99984 9.66683L4.6665 6.3335" stroke="#161717" stroke-width="2" stroke-linecap="round" stroke-linejoin="round" />
    </symbol>
    <symbol id="arrow-down-pagination" viewBox="0 0 20 20" fill="none" xmlns="http://www.w3.org/2000/svg">
        <path d="M15.8346 8.5L10.0013 13.5L4.16797 8.5" stroke="#667085" stroke-width="1.5" stroke-linecap="round" stroke-linejoin="round" />
    </symbol>
    <symbol id="close" viewBox="0 0 16 16" fill="none" xmlns="http://www.w3.org/2000/svg">
        <path d="M5 11L11 5M11 11L5 5" stroke="#3C3818" stroke-width="1.5" stroke-linecap="round" stroke-linejoin="round" />
    </symbol>
    <symbol id="close-gray" viewBox="0 0 24 24" fill="none" xmlns="http://www.w3.org/2000/svg">
        <path fill-rule="evenodd" clip-rule="evenodd" d="M6.6129 5.2097L6.70711 5.29289L12 10.585L17.2929 5.29289C17.6834 4.90237 18.3166 4.90237 18.7071 5.29289C19.0676 5.65338 19.0953 6.22061 18.7903 6.6129L18.7071 6.70711L13.415 12L18.7071 17.2929C19.0976 17.6834 19.0976 18.3166 18.7071 18.7071C18.3466 19.0676 17.7794 19.0953 17.3871 18.7903L17.2929 18.7071L12 13.415L6.70711 18.7071C6.31658 19.0976 5.68342 19.0976 5.29289 18.7071C4.93241 18.3466 4.90468 17.7794 5.2097 17.3871L5.29289 17.2929L10.585 12L5.29289 6.70711C4.90237 6.31658 4.90237 5.68342 5.29289 5.29289C5.65338 4.93241 6.22061 4.90468 6.6129 5.2097Z" fill="#404143" />
    </symbol>
    <symbol id="heart" viewBox="0 0 20 19" fill="currentColor" xmlns="http://www.w3.org/2000/svg">
        <path d="M9.05489 16.4754L9.05381 16.4744C6.46406 14.126 4.37492 12.2274 2.92445 10.4529C1.48222 8.68839 0.75 7.13843 0.75 5.5C0.75 2.82511 2.83332 0.75 5.5 0.75C7.01327 0.75 8.4781 1.45834 9.43087 2.56846L10 3.23157L10.5691 2.56846C11.5219 1.45834 12.9867 0.75 14.5 0.75C17.1667 0.75 19.25 2.82511 19.25 5.5C19.25 7.13843 18.5178 8.68839 17.0756 10.4529C15.6251 12.2274 13.5359 14.126 10.9462 16.4744L10.9451 16.4754L10 17.3358L9.05489 16.4754Z" stroke="#404143" stroke-width="1.5" />
    </symbol>
    <symbol id="instagram" viewBox="0 0 19 20" fill="none" xmlns="http://www.w3.org/2000/svg">
        <path d="M0.5 9C0.5 5.229 0.5 3.343 1.672 2.172C2.843 1 4.729 1 8.5 1H10.5C14.271 1 16.157 1 17.328 2.172C18.5 3.343 18.5 5.229 18.5 9V11C18.5 14.771 18.5 16.657 17.328 17.828C16.157 19 14.271 19 10.5 19H8.5C4.729 19 2.843 19 1.672 17.828C0.5 16.657 0.5 14.771 0.5 11V9Z" stroke="currentColor"/>
        <path d="M14 7C14.8284 7 15.5 6.32843 15.5 5.5C15.5 4.67157 14.8284 4 14 4C13.1716 4 12.5 4.67157 12.5 5.5C12.5 6.32843 13.1716 7 14 7Z" fill="currentColor"/>
        <path d="M9.5 13.5C11.433 13.5 13 11.933 13 10C13 8.067 11.433 6.5 9.5 6.5C7.567 6.5 6 8.067 6 10C6 11.933 7.567 13.5 9.5 13.5Z" stroke="currentColor"/>
    </symbol>
    <symbol id="search" viewBox="0 0 24 24" fill="none" xmlns="http://www.w3.org/2000/svg">
        <path fill-rule="evenodd" clip-rule="evenodd" d="M11.5814 3C6.84202 3 3 6.84202 3 11.5814C3 16.3208 6.84202 20.1628 11.5814 20.1628C16.3208 20.1628 20.1628 16.3208 20.1628 11.5814C20.1628 6.84202 16.3208 3 11.5814 3ZM4.25581 11.5814C4.25581 7.53559 7.53559 4.25581 11.5814 4.25581C15.6272 4.25581 18.907 7.53559 18.907 11.5814C18.907 15.6272 15.6272 18.907 11.5814 18.907C7.53559 18.907 4.25581 15.6272 4.25581 11.5814Z" fill="#404143"/>
        <path d="M19.1417 18.2537C18.8965 18.0085 18.4989 18.0085 18.2537 18.2537C18.0085 18.4989 18.0085 18.8965 18.2537 19.1417L19.9281 20.8161C20.1733 21.0613 20.5709 21.0613 20.8161 20.8161C21.0613 20.5709 21.0613 20.1733 20.8161 19.9281L19.1417 18.2537Z" fill="#404143"/>
    </symbol>
    <symbol id="share" viewBox="0 0 16 16" fill="none" xmlns="http://www.w3.org/2000/svg">
        <path d="M9.89486 2.60527L9.8595 2.56991L9.82414 2.60527L9.10464 3.32477L9.06928 3.36013L9.10465 3.39549L12.1607 6.45012H5.5C3.54489 6.45012 1.95 8.04501 1.95 10.0001C1.95 11.9552 3.54489 13.5501 5.5 13.5501H5.55V13.5001V12.5001V12.4501H5.5C4.14111 12.4501 3.05 11.359 3.05 10.0001C3.05 8.64124 4.14111 7.55013 5.5 7.55013H12.1608L9.10515 10.6053L9.06979 10.6406L9.10514 10.676L9.82414 11.395L9.8595 11.4303L9.89486 11.395L13.8949 7.39498L13.8949 7.39499L13.8957 7.39417L14.2392 7.03467L14.2722 7.00012L14.2392 6.96558L13.8957 6.60608L13.8957 6.60607L13.8949 6.60527L9.89486 2.60527Z" fill="#404143" stroke="#404143" stroke-width="0.1" />
    </symbol>
    <symbol id="olive-wreath-before" viewBox="0 0 71 136" fill="none" xmlns="http://www.w3.org/2000/svg">
        <path d="M55.9757 129.66H54.6731H54.3236H54.0059L53.2752 129.85C52.1824 130.156 51.1192 130.558 50.0983 131.052C49.0181 131.527 47.938 132.065 46.9213 132.571C45.9047 133.077 45.0787 133.52 44.4751 133.868L43.4902 134.375H43.7762L44.5704 134.628C45.2693 134.817 46.2224 135.071 47.3026 135.292H48.1604H49.0499C49.6296 135.556 50.2236 135.789 50.829 135.988C52.0066 136.043 53.1856 135.915 54.3236 135.608C56.0667 135.108 57.61 134.08 58.7396 132.666C59.2512 132.061 59.6787 131.391 60.0104 130.673C59.4123 130.342 58.7707 130.097 58.1042 129.945C57.4098 129.76 56.6945 129.664 55.9757 129.66Z" fill="#FFD40F" />
        <path d="M59.1895 121.21C58.6755 120.423 58.0675 119.7 57.3787 119.059C57.0629 118.738 56.7231 118.442 56.3621 118.173L55.8537 117.761L55.3454 117.35C54.6783 116.844 54.1064 116.464 53.6616 116.179L52.9945 115.736C52.9742 116.074 52.9742 116.412 52.9945 116.749C52.9945 117.382 52.9945 118.204 53.2169 119.153C53.3668 120.222 53.5897 121.279 53.884 122.317C54.1806 123.303 54.5967 124.248 55.123 125.133C55.2422 125.346 55.3804 125.547 55.5361 125.735L55.7584 125.988L55.9491 126.209C56.2427 126.5 56.5616 126.765 56.9021 127C57.1983 127.215 57.5181 127.395 57.8552 127.538C58.1397 127.691 58.4374 127.818 58.7448 127.918C59.384 128.104 60.0487 128.19 60.7145 128.171C60.7926 127.403 60.7926 126.629 60.7145 125.861C60.6154 125.114 60.4668 124.374 60.2697 123.646L60.0791 123.045C60.0791 122.855 59.9202 122.634 59.8249 122.444C59.6478 122.016 59.4353 121.603 59.1895 121.21Z" fill="#FFD40F" />
        <path d="M42.9225 123.521L42.6048 123.236C42.21 122.896 41.772 122.608 41.3022 122.382L40.4127 121.939L39.3325 121.591C38.4487 121.319 37.5244 121.201 36.6003 121.242H34.9483C34.3623 121.285 33.779 121.359 33.201 121.464L31.3901 121.78L29.7381 122.128L27.0377 122.73L25.9258 123.014C25.9258 123.014 26.2752 123.267 26.8789 123.615L27.9273 124.248L28.5944 124.628L29.2934 124.976L30.8818 125.672L31.7396 125.988L32.1526 126.147H32.5974C33.7217 126.478 34.8877 126.649 36.0603 126.653C37.8827 126.6 39.6497 126.017 41.1434 124.976C41.6239 124.652 42.0708 124.281 42.4777 123.869L42.9225 123.394V123.521Z" fill="#FFD40F" />
        <path d="M39.8413 117.004C40.0995 117.821 40.5089 118.583 41.0485 119.25C41.2587 119.543 41.5041 119.808 41.7792 120.041L42.5735 120.579C42.9732 120.834 43.3993 121.047 43.8443 121.212H44.2255H44.4796C44.4796 121.212 44.4796 120.99 44.702 120.611C44.8704 120.081 45.0083 119.542 45.115 118.997C45.4549 117.394 45.4004 115.733 44.9562 114.156C44.693 113.274 44.3081 112.433 43.8125 111.657C43.3784 110.888 42.8789 110.157 42.3193 109.473L41.6204 108.587L41.0485 107.891L40.3814 107.512L40.1272 108.461C40.1272 109.062 39.8095 109.916 39.6824 110.866C39.5858 111.378 39.5221 111.896 39.4918 112.416C39.4598 112.943 39.4598 113.471 39.4918 113.998C39.4602 114.535 39.4602 115.074 39.4918 115.612C39.5743 116.083 39.6911 116.549 39.8413 117.004Z" fill="#FFD40F" />
        <path d="M27.7056 111.469C27.4384 111.059 27.1296 110.677 26.7842 110.33C26.2993 109.82 25.7428 109.383 25.1322 109.032C24.3505 108.558 23.5056 108.196 22.6224 107.957L21.5423 107.735L20.3986 107.514C18.4924 107.229 16.3003 107.134 14.6801 107.039H11.8208L12.901 108.305C13.8394 109.164 14.8373 109.957 15.8873 110.678C16.0804 110.797 16.2613 110.935 16.4274 111.089L16.7133 111.279L16.9992 111.469L18.1747 112.165C18.5644 112.38 18.9676 112.571 19.3819 112.734C19.7683 112.922 20.1728 113.071 20.5892 113.177C22.3692 113.597 24.2331 113.499 25.9582 112.892C26.721 112.64 27.4473 112.289 28.1186 111.848L27.7056 111.469Z" fill="#FFD40F" />
        <path d="M28.4027 108.967C28.7155 109.321 29.0672 109.64 29.4511 109.916L29.9276 110.201C30.4255 109.598 30.852 108.94 31.1984 108.239C31.9929 106.804 32.4186 105.195 32.4374 103.556C32.437 102.888 32.3732 102.22 32.2468 101.563C32.1809 101.232 32.096 100.904 31.9927 100.582C31.9927 100.266 31.8338 99.9179 31.7385 99.6331C31.5929 99.0844 31.4125 98.5454 31.1984 98.0195C31.1515 97.9008 31.0985 97.7847 31.0396 97.6714C31.0522 97.5664 31.0522 97.4601 31.0396 97.355C30.9763 97.1612 30.902 96.971 30.8172 96.7855C30.4995 96.0578 30.2771 95.6465 30.2771 95.6465C30.2771 95.6465 29.7053 96.5324 29.0063 97.8613L28.4663 98.9687C28.3949 99.1642 28.3099 99.3544 28.2121 99.5382C28.2121 99.7597 28.0532 99.9495 27.9897 100.171C27.6587 101.001 27.4035 101.858 27.2272 102.734C27.2272 103.082 27.2272 103.43 27.0366 103.746C26.846 104.063 27.0366 104.379 27.0366 104.696C27.0473 105.54 27.2086 106.375 27.5132 107.163C27.7205 107.804 28.0202 108.412 28.4027 108.967Z" fill="#FFD40F" />
        <path d="M13.4067 97.1664H14.5822C15.3899 97.1028 16.1885 96.9543 16.9649 96.7234C16.9768 96.5443 16.9768 96.3647 16.9649 96.1856C16.9649 96.0274 16.9649 95.8059 16.7425 95.5844C16.6052 95.3285 16.4457 95.085 16.266 94.8567C15.9467 94.2332 15.5402 93.658 15.0587 93.1481L14.6139 92.7368C14.4789 92.5657 14.3181 92.4163 14.1374 92.2938C13.7623 91.987 13.3698 91.7017 12.9619 91.4396C12.4802 91.1657 11.9815 90.9227 11.4688 90.7119C10.9541 90.4384 10.4237 90.1954 9.88028 89.9841L6.70333 88.7502L4.09823 87.8643L3.01807 87.5479L3.46284 88.5603L4.00292 89.6361C4.22531 90.0474 4.47946 90.4904 4.76539 90.9333C5.05132 91.3763 5.36901 91.8825 5.71848 92.3571L5.97263 92.7052L6.25856 93.0532C6.44917 93.2747 6.63979 93.5278 6.86218 93.7493C7.08457 93.9708 7.68819 94.6036 8.10119 94.9833L8.76835 95.5211L9.49905 95.9641C10.3584 96.457 11.2916 96.8095 12.263 97.0082C12.6408 97.083 13.0227 97.1359 13.4067 97.1664Z" fill="#FFD40F" />
        <path d="M17.694 92.073C17.7699 92.7409 17.9522 93.3924 18.234 94.0031L18.5835 94.6675C18.728 94.8491 18.8874 95.0185 19.06 95.1738L19.4413 95.5851C20.0792 95.1217 20.6746 94.6029 21.2204 94.0347C21.4688 93.7739 21.7022 93.4992 21.9193 93.2121C22.1806 92.8986 22.4245 92.5711 22.65 92.2312C23.1374 91.5068 23.5223 90.7189 23.7937 89.8899C23.7791 89.6686 23.7791 89.4467 23.7937 89.2254C23.7937 89.004 23.7937 88.7508 23.7937 88.5294C23.825 88.0764 23.825 87.6218 23.7937 87.1688C23.8422 86.2941 23.8422 85.4174 23.7937 84.5427C23.7937 84.163 23.7937 83.7834 23.7937 83.467C23.7937 83.1506 23.7937 82.8342 23.7937 82.581C23.7937 82.3279 23.7937 81.79 23.7937 81.79L23.0312 82.4861C22.5865 82.8974 21.9511 83.5302 21.2839 84.258C20.5803 85.0563 19.9327 85.902 19.346 86.7892C19.0507 87.2353 18.7854 87.7003 18.5517 88.1813C18.3261 88.6303 18.1349 89.0957 17.9799 89.5735C17.8493 90.0065 17.7642 90.4518 17.7257 90.9024C17.7099 91.1024 17.7099 91.3034 17.7257 91.5035V91.6934C17.6876 91.8161 17.6768 91.9457 17.694 92.073Z" fill="#FFD40F" />
        <path d="M5.05135 78.2771C5.4647 78.5641 5.90025 78.8181 6.3539 79.0365C7.09789 79.3704 7.87528 79.6249 8.67308 79.7958C9.46579 79.9662 10.2778 80.03 11.0876 79.9857C11.1984 79.3364 11.1984 78.6732 11.0876 78.024C11.0876 77.7392 10.8969 77.4228 10.8016 77.1064C10.7056 76.7435 10.567 76.393 10.3886 76.0623C10.2057 75.6876 9.99327 75.3279 9.75324 74.9866C9.61458 74.7996 9.46611 74.6201 9.30847 74.4487L9.08608 74.1639L8.83193 73.8792C7.08082 72.2688 5.18825 70.8181 3.17695 69.5445C2.28741 68.9117 1.49317 68.4055 0.889546 68.0258L0 67.5195L0.158848 68.5953C0.158848 69.2597 0.444773 70.2089 0.730699 71.2214C1.06295 72.3057 1.47714 73.3634 1.96971 74.3854C2.07544 74.6644 2.21408 74.93 2.38271 75.1764C2.51348 75.4191 2.66215 75.6517 2.82749 75.8725C3.14347 76.3307 3.49395 76.7644 3.87588 77.1697C4.2227 77.5835 4.61724 77.9552 5.05135 78.2771Z" fill="#FFD40F" />
        <path d="M13.5985 79.4808C14.3957 79.2139 15.1625 78.864 15.8859 78.4367C16.5615 78.0571 17.1906 77.6005 17.7603 77.0762C18.0907 76.7945 18.3988 76.4877 18.6816 76.1586C18.9818 75.8309 19.2579 75.4819 19.5076 75.1145C19.7674 74.7244 19.9907 74.3113 20.1748 73.8805C20.3654 73.4692 20.5242 73.0263 20.6831 72.6149C20.9735 71.788 21.207 70.9423 21.382 70.0837C21.5726 69.2927 21.6679 68.5967 21.7632 68.1221C21.778 67.8586 21.778 67.5945 21.7632 67.3311L20.8737 67.774C20.3019 68.0904 19.5394 68.5017 18.6816 69.0713C17.7736 69.6454 16.9131 70.2908 16.1083 71.0013C15.3089 71.6864 14.6039 72.4737 14.0115 73.3427C13.7507 73.7158 13.5372 74.1196 13.3761 74.545C13.2409 74.9159 13.1347 75.2968 13.0584 75.684C13.0295 76.0315 13.0295 76.3807 13.0584 76.7281C13.0235 77.033 13.0235 77.3408 13.0584 77.6457C13.144 78.2811 13.3262 78.8999 13.5985 79.4808Z" fill="#FFD40F" />
        <path d="M2.82962 53.2829C2.82962 53.7258 2.82962 54.1688 3.08377 54.5801C3.24948 55.4193 3.53852 56.2295 3.94155 56.9848C4.78999 58.5605 6.11182 59.8327 7.72212 60.6233C8.44619 60.9937 9.21492 61.2702 10.0095 61.446L10.1684 60.9397C10.3074 60.4764 10.3927 59.9987 10.4225 59.5159C10.5292 58.8345 10.5292 58.1408 10.4225 57.4594C10.2665 56.583 9.9659 55.7384 9.53299 54.9598C9.53299 54.6434 9.18352 54.3586 8.9929 54.0422L8.64344 53.7258L8.32574 53.2512C7.78566 52.4602 7.18204 51.6692 6.57842 50.9099L4.86287 48.8216C3.84624 47.3978 3.17908 46.5752 3.17908 46.5752C3.17908 46.5752 3.17908 47.208 2.9567 48.1888C2.90334 48.7571 2.90334 49.3291 2.9567 49.8974C2.9567 50.5618 2.9567 51.2579 2.9567 51.954C2.9567 52.6501 2.76608 52.8399 2.82962 53.2829Z" fill="#FFD40F" />
        <path d="M19.4432 59.01L19.8244 58.6936L20.2057 58.3139C20.445 58.0649 20.6678 57.8007 20.8728 57.5229C21.0917 57.262 21.2934 56.9872 21.4765 56.7003L22.0165 55.8777C22.32 55.4307 22.5958 54.9658 22.8425 54.4855L23.1602 53.8527C23.2362 53.6639 23.332 53.4836 23.4462 53.3148C23.6362 52.9446 23.8059 52.5644 23.9545 52.1758C23.9545 52.1758 22.8743 52.3656 21.3811 52.7453L20.1739 53.0933L19.062 53.7261C18.1888 54.0577 17.3396 54.4489 16.5204 54.8968C15.931 55.2175 15.3772 55.5993 14.8684 56.0359C14.2183 56.5954 13.6794 57.2716 13.2799 58.0292C12.9868 58.6267 12.7936 59.268 12.7081 59.9276C12.6299 60.3884 12.6299 60.859 12.7081 61.3197C12.6937 61.4987 12.6937 61.6786 12.7081 61.8576C13.5043 61.7864 14.2917 61.6381 15.059 61.4147C16.6845 60.9543 18.1836 60.1321 19.4432 59.01Z" fill="#FFD40F" />
        <path d="M10.9614 40.1519C11.396 40.8304 11.9077 41.4568 12.4864 42.0187C13.065 42.5692 13.7171 43.0377 14.4243 43.4108L14.742 42.9679C14.9913 42.5547 15.2039 42.1206 15.3774 41.6706C15.6376 41.0325 15.8086 40.3618 15.8857 39.6773C15.8857 39.2976 15.8857 38.8547 15.8857 38.4433C15.9314 37.9804 15.9314 37.5141 15.8857 37.0512C15.7887 36.5275 15.6614 36.0099 15.5045 35.5008L15.155 34.7415C15.0849 34.463 15 34.1884 14.9008 33.9188C14.5196 32.8431 14.0748 31.7357 13.6618 30.7548L13.0582 29.3943L12.7087 28.4135L12.264 27.4326C12.0299 27.7447 11.8176 28.0724 11.6286 28.4135C11.4697 28.6982 11.3427 29.1095 11.152 29.5209L10.6437 30.9447C10.6437 31.1978 10.4849 31.4509 10.4213 31.704C10.3324 31.9847 10.2581 32.2699 10.1989 32.5583C10.0596 33.1211 9.95348 33.6916 9.88125 34.2669C9.83516 34.846 9.83516 35.4279 9.88125 36.0071C9.88607 36.559 9.93922 37.1096 10.0401 37.6523C10.1881 38.5354 10.5006 39.3832 10.9614 40.1519Z" fill="#FFD40F" />
        <path d="M25.4129 42.9338C25.8239 42.6996 26.2169 42.4352 26.5884 42.1428L27.6368 41.2252L28.5899 40.3709L29.3524 39.5483L29.6701 39.2003L29.956 38.8839L30.4961 38.2827H29.4794C28.6224 38.2326 27.7631 38.2326 26.9061 38.2827C25.8419 38.306 24.7805 38.4011 23.7292 38.5675L22.8714 38.7257L22.236 38.8206C21.7293 38.9421 21.2388 39.1227 20.7746 39.3585C20.3492 39.5357 19.9444 39.7584 19.5673 40.0229C19.2469 40.2707 18.9394 40.5347 18.646 40.8139C18.1973 41.3242 17.8132 41.8874 17.5023 42.4908C17.3227 42.9171 17.1947 43.3632 17.1211 43.8197C17.1211 44.1361 17.1211 44.3576 17.1211 44.3576C17.9164 44.5119 18.7253 44.5861 19.5356 44.5791C20.3234 44.5885 21.1105 44.5249 21.8865 44.3892C22.775 44.2538 23.6407 43.9984 24.4599 43.6299C24.7971 43.4256 25.1159 43.1927 25.4129 42.9338Z" fill="#FFD40F" />
        <path d="M20.9991 23.9531C21.2347 24.7036 21.5544 25.4253 21.9522 26.1046C22.349 26.7826 22.8411 27.4006 23.4136 27.9397C23.9609 27.5537 24.4435 27.0838 24.8432 26.5476C25.0523 26.2866 25.2434 26.0117 25.4151 25.7249C25.4151 25.4402 25.7646 25.0921 25.9234 24.7441C26.2682 23.8967 26.4721 22.999 26.527 22.0863C26.6177 21.0336 26.6177 19.975 26.527 18.9223C26.527 17.7516 26.3364 16.6126 26.1776 15.5368C26.0187 14.4611 25.9234 13.5752 25.8281 12.9107L25.6693 11.835L25.4151 12.0248L24.9703 12.5943C24.5255 13.1322 23.9219 13.8916 23.2865 14.7775C22.6611 15.7917 22.109 16.8491 21.6345 17.9415C21.1766 18.9444 20.8766 20.0116 20.745 21.1055C20.7305 21.3689 20.7305 21.633 20.745 21.8965C20.731 22.1388 20.731 22.3818 20.745 22.6242C20.7818 23.0749 20.867 23.5204 20.9991 23.9531Z" fill="#FFD40F" />
        <path d="M34.19 30.3409L34.9525 30.0878H35.3019H35.6196C36.455 29.7511 37.2624 29.349 38.0341 28.8855C38.7648 28.5058 39.3684 28.1261 39.8132 27.8414L40.2898 27.4933H40.4804H40.2262L39.5273 27.2402C38.9237 27.0504 38.0659 26.7972 37.081 26.5758L35.4926 26.2277H34.6666H33.8405C32.7863 26.0869 31.7179 26.0869 30.6636 26.2277C29.8006 26.3714 28.9715 26.6717 28.2173 27.1136C27.8982 27.291 27.5998 27.5033 27.3278 27.7464L26.6606 28.4109C26.1991 28.7099 25.782 29.072 25.4216 29.4866C26.1559 29.8413 26.9217 30.1273 27.709 30.3409C28.456 30.553 29.2222 30.6907 29.9964 30.7522C30.8932 30.8621 31.8001 30.8621 32.6968 30.7522L34.19 30.3409Z" fill="#FFD40F" />
        <path d="M36.7896 14.2696C36.8682 14.4674 36.9639 14.6579 37.0756 14.8392H37.2344L37.6156 14.681C38.0664 14.4759 38.4926 14.2211 38.8864 13.9216C40.1815 12.9706 41.183 11.6772 41.7775 10.1881C42.0423 9.51694 42.2651 8.83009 42.4446 8.13148C42.7084 7.20521 42.9205 6.26512 43.08 5.31552C43.2706 4.39796 43.4612 3.51204 43.5883 2.72104C43.8425 1.13904 44.0013 0 44.0013 0L42.5717 0.85428L41.3009 1.8984C40.7926 2.34136 40.2525 2.81596 39.7442 3.3222L38.7911 4.2714L38.5687 4.52452L38.124 4.80928L37.711 5.34716C37.1987 6.01998 36.7719 6.75325 36.4402 7.53032C36.2297 7.99196 36.0904 8.48265 36.0272 8.98576C35.9822 9.43816 35.9822 9.89388 36.0272 10.3463C36.0063 11.0998 36.0702 11.8533 36.2178 12.5927C36.3555 13.1682 36.547 13.7296 36.7896 14.2696Z" fill="#FFD40F" />
        <path d="M49.4657 19.7124L51.0859 19.3327L52.4203 18.9214L53.6275 18.51C53.6275 18.51 52.7697 17.8772 51.4354 17.0862C50.7101 16.6285 49.9568 16.2163 49.1798 15.8523C48.3376 15.46 47.4668 15.1321 46.5747 14.8714C45.8932 14.6631 45.1894 14.5357 44.4779 14.4918C42.9143 14.3168 41.339 14.6978 40.0302 15.5675C39.6262 15.8188 39.2531 16.1161 38.9182 16.4534L38.6641 16.7698L39.1724 17.2128C39.6162 17.5847 40.0949 17.9132 40.602 18.1936C41.2641 18.6106 41.9666 18.9604 42.6988 19.2378L43.9378 19.6174C44.3864 19.7348 44.843 19.8194 45.3039 19.8706C46.6923 19.9932 48.0907 19.9401 49.4657 19.7124Z" fill="#FFD40F" />
        <path d="M69.888 130.99L68.4901 130.832H67.6641H66.7428L64.646 130.484L62.3904 129.661L61.1831 129.376L59.9441 129.028C59.1181 128.807 58.2603 128.617 57.4343 128.332C54.3954 127.369 51.4237 126.206 48.5388 124.852L46.9186 124.061L46.2514 123.744L45.7114 123.428L44.663 122.858L43.6146 122.289C42.9474 121.909 42.0579 121.308 40.9459 120.644C38.2932 118.923 35.7568 117.031 33.353 114.98C30.985 112.892 28.7464 110.662 26.6497 108.304L26.0778 107.513C25.8872 107.291 25.7283 107.07 25.5377 106.88L24.6799 105.836L24.1716 105.14L23.981 104.887L23.2821 103.969C23.0597 103.653 22.7738 103.305 22.4878 102.862L21.5348 101.438L20.9629 100.584C20.7723 100.331 20.6134 100.014 20.4228 99.6979L19.2474 98.021L18.0719 95.8378L17.786 95.2999L17.5 94.7304C17.5 94.3507 17.1506 93.971 16.96 93.5597C15.6849 90.7531 14.623 87.8552 13.783 84.8904L13.4971 84.0361C13.4971 83.7513 13.3382 83.4982 13.2747 83.2451C13.2112 82.992 13.0523 82.2959 12.9888 81.9478C12.9252 81.5998 12.7028 80.6506 12.7028 80.6506C12.6963 80.5558 12.6963 80.4607 12.7028 80.3658C12.7028 80.176 12.7028 79.8912 12.7028 79.5116L12.4487 78.2143C12.4487 77.7081 12.2263 77.1386 12.1628 76.5374C12.0992 75.9362 12.0039 75.2085 11.9086 74.5124C11.8933 74.3335 11.8933 74.1535 11.9086 73.9746C11.893 73.785 11.893 73.5946 11.9086 73.405V72.2344C11.9086 70.684 11.9086 69.0704 11.6862 67.3302C11.4638 65.59 11.6862 63.9447 11.9086 62.3943V61.2237C11.8912 61.0448 11.8912 60.8646 11.9086 60.6858C11.893 60.4963 11.893 60.3058 11.9086 60.1162C11.9086 59.4202 12.0992 58.7241 12.1628 58.1229C12.2263 57.5218 12.3851 56.9206 12.4487 56.4144L12.7028 55.1171C12.7028 54.7375 12.7028 54.4527 12.7028 54.2629C12.6963 54.168 12.6963 54.0729 12.7028 53.9781C12.7028 53.9781 12.7028 53.5668 12.9888 52.8391C13.2747 52.1113 13.1794 52.048 13.2747 51.5418C13.37 51.0356 13.2747 51.0356 13.4971 50.7508C13.7195 50.466 13.6877 50.2129 13.783 49.8965C14.623 46.9317 15.6849 44.0338 16.96 41.2272C17.1506 40.8475 17.3412 40.4362 17.5 40.0565L17.786 39.487L18.0719 38.9491L19.2474 36.7976L20.4228 34.741L20.9629 33.8551L21.5348 33.0324L22.4878 31.577C22.7738 31.134 23.0597 30.786 23.2821 30.4696L23.981 29.552L24.1716 29.2989L24.6799 28.6028L25.4106 27.622C25.6013 27.4321 25.7601 27.2107 25.9507 26.9892L26.5226 26.2931C28.6603 23.9309 30.9414 21.7013 33.353 19.6171C35.7568 17.5657 38.2932 15.6738 40.9459 13.9535C42.0579 13.2891 42.9474 12.6879 43.6146 12.3399L44.663 11.7387L45.7114 11.1692L46.2514 10.8844L46.9186 10.5364L47.4269 10.3149C48.0089 10.3468 48.5922 10.3468 49.1742 10.3149C50.8559 10.2654 52.5054 9.84386 54.0032 9.08094C54.8338 8.64585 55.6029 8.10327 56.2906 7.4673L57.3072 6.5181L58.1968 5.5689C58.7051 4.96774 59.1816 4.42986 59.4993 4.01854L59.9759 3.38574H58.9593H56.3859H55.5917H54.7974L53.1772 3.70214C52.0739 3.91483 51.005 4.27677 50.0002 4.7779C49.2324 5.16481 48.5515 5.70303 47.9988 6.3599C47.5688 6.88222 47.2256 7.46972 46.9821 8.1001C46.8176 8.52912 46.7004 8.9747 46.6327 9.42898C46.6178 9.49139 46.6178 9.55641 46.6327 9.61882H46.4421L45.7749 9.93522L45.2348 10.2516L44.4724 11.2008L43.3922 11.7703L40.6918 13.4156C38.0053 15.154 35.437 17.0671 33.0036 19.1425C30.5725 21.239 28.2803 23.4902 26.1413 25.8818C25.919 26.1033 25.7283 26.3564 25.5377 26.5779L25.0294 27.2423L24.1399 28.413L23.6316 29.1091L23.4409 29.3622L22.742 30.3114L21.916 31.2606L20.9629 32.7477L20.3911 33.5703L19.8192 34.4879L18.6437 36.4812C18.2625 37.1773 17.8495 37.905 17.4683 38.6643L17.1823 39.2339L16.8964 39.8034C16.7376 40.1831 16.547 40.5627 16.3563 40.9424C15.0744 43.7789 14.0123 46.7088 13.1794 49.7067C13.1794 50.0231 12.9888 50.3079 12.9252 50.5926C12.8259 50.8486 12.7515 51.1135 12.7028 51.3836L12.3851 52.7125C12.3851 53.4086 12.0992 53.8515 12.0992 53.8515V54.1363C12.082 54.4208 12.082 54.7061 12.0992 54.9906L11.8451 56.2878C11.8451 56.8257 11.6227 57.3952 11.5591 58.028C11.4956 58.6608 11.3685 59.3252 11.305 60.053V60.5909C11.305 60.7807 11.305 60.9705 11.305 61.1604V62.331C11.305 63.913 11.305 65.495 11.0826 67.3302C10.8602 69.1653 11.0826 70.7157 11.305 72.2977V73.4683C11.305 73.6582 11.305 73.848 11.305 74.0378V74.5757C11.305 75.3034 11.305 75.9995 11.5591 76.6323C11.8133 77.2651 11.7498 77.8346 11.8451 78.3409L12.0992 79.6381C12.082 79.9226 12.082 80.2079 12.0992 80.4924C12.0992 80.6822 12.0992 80.8088 12.0992 80.8088C12.0992 80.8088 12.0992 81.2201 12.3851 81.9162L12.7028 83.2451C12.7515 83.5152 12.8259 83.7801 12.9252 84.0361C12.9252 84.3208 12.9252 84.6056 13.1794 84.922C14.0071 87.9215 15.0694 90.8519 16.3563 93.6863C16.547 94.066 16.7376 94.4456 16.8964 94.8253L17.1823 95.4265L17.4683 95.9644C17.8495 96.7237 18.2625 97.4514 18.6437 98.1475L19.8192 100.141L20.3911 101.058L20.9629 101.913L21.916 103.368L22.742 104.476L23.4409 105.425L23.6316 105.678C23.6316 105.678 23.9175 106.058 24.1399 106.342L25.0294 107.418L25.5377 108.051L26.1413 108.779C28.2487 111.148 30.4978 113.387 32.8765 115.486C35.3099 117.562 37.8783 119.475 40.5647 121.213L43.2651 122.858L44.4724 123.333L45.5207 123.902L46.0608 124.219L46.728 124.535L48.3482 125.326C51.2028 126.744 54.154 127.96 57.1802 128.965C58.0062 129.25 58.8639 129.471 59.7217 129.693L60.9607 130.041C61.342 130.041 61.7867 130.23 62.168 130.325L64.5189 130.832L66.6157 131.211H67.5688H68.3948L69.7927 131.401H70.9999V130.768L69.888 130.99Z" fill="#FFD40F" />
    </symbol>
    <symbol id="olive-wreath-after" viewBox="0 0 71 136" fill="none" xmlns="http://www.w3.org/2000/svg">
        <path d="M14.9496 130.181H16.2538H16.5719H16.9218L17.6534 130.372C18.7476 130.679 19.8122 131.082 20.8344 131.578C21.9159 132.055 22.9975 132.594 24.0154 133.102C25.0333 133.61 25.8603 134.055 26.4647 134.404L27.419 134.912H27.1327L26.3693 135.166C25.6695 135.357 24.7152 135.611 23.6337 135.833H22.7748H21.8841C21.2801 135.865 20.6749 135.865 20.071 135.833C18.8919 135.888 17.7114 135.759 16.5719 135.452C14.8267 134.95 13.2813 133.918 12.1503 132.499C11.6381 131.892 11.2101 131.22 10.8779 130.499C11.4768 130.167 12.1192 129.922 12.7865 129.769C13.5228 129.809 14.2503 129.948 14.9496 130.181Z" fill="#FFD40F" />
        <path d="M11.7056 121.701C12.4684 120.485 13.4371 119.411 14.5685 118.526L15.1092 118.113L15.5864 117.7C16.1268 117.279 16.6896 116.887 17.2723 116.526L17.9403 116.081V117.097C17.9403 117.732 17.9403 118.558 17.7176 119.51C17.5676 120.582 17.3444 121.643 17.0496 122.685C16.7527 123.674 16.3361 124.623 15.8091 125.511C15.8091 125.733 15.5228 125.924 15.3955 126.114L15.1729 126.368L14.9502 126.591C14.674 126.889 14.3645 127.156 14.0277 127.384C13.7312 127.6 13.411 127.781 13.0734 127.924C12.7886 128.078 12.4905 128.205 12.1827 128.305C11.5427 128.493 10.8772 128.578 10.2105 128.559C10.1323 127.789 10.1323 127.012 10.2105 126.241C10.2943 125.489 10.4433 124.745 10.6559 124.019L10.8467 123.416C10.8467 123.225 11.0058 123.003 11.1012 122.812C11.2737 122.427 11.4758 122.055 11.7056 121.701Z" fill="#FFD40F" />
        <path d="M28.0251 124.019C28.1246 123.917 28.2309 123.822 28.3432 123.734C28.709 123.399 29.115 123.111 29.552 122.876C29.8065 122.718 30.1246 122.591 30.4427 122.432L31.5242 122.083C32.4087 121.808 33.3345 121.69 34.2598 121.733H35.914C36.5007 121.776 37.0847 121.85 37.6635 121.956L39.4766 122.273L41.1308 122.622L43.8664 123.226L44.9479 123.511C44.9479 123.511 44.598 123.765 43.9936 124.115L42.9439 124.75L42.2759 125.131L41.5761 125.48L39.9856 126.179L39.1267 126.496L38.7132 126.655H38.2679C37.1417 126.985 35.9745 127.156 34.8006 127.163C32.9759 127.11 31.2067 126.525 29.711 125.48C29.23 125.155 28.7824 124.782 28.375 124.369L27.9297 123.892L28.0251 124.019Z" fill="#FFD40F" />
        <path d="M31.1113 117.477C30.8528 118.298 30.4428 119.062 29.9025 119.732C29.7403 120.063 29.5373 120.372 29.2981 120.653L28.5029 121.192C28.1026 121.449 27.676 121.661 27.2305 121.827H26.8488C26.8488 121.827 26.8488 121.605 26.6261 121.224C26.4575 120.693 26.3195 120.152 26.2126 119.605C25.8043 118.047 25.7716 116.415 26.1171 114.842C26.3807 113.957 26.7661 113.113 27.2623 112.334C27.6969 111.562 28.1971 110.829 28.7574 110.143L29.4572 109.254L30.0297 108.555L30.5705 107.952L30.825 108.905C30.825 109.508 31.1431 110.365 31.2703 111.318C31.3671 111.832 31.4309 112.351 31.4612 112.874C31.4933 113.402 31.4933 113.932 31.4612 114.461C31.4928 115 31.4928 115.541 31.4612 116.08C31.3787 116.554 31.2617 117.021 31.1113 117.477Z" fill="#FFD40F" />
        <path d="M43.263 111.922C43.5306 111.51 43.8397 111.127 44.1855 110.779C44.6711 110.267 45.2282 109.829 45.8396 109.477C46.6224 109.001 47.4683 108.638 48.3526 108.397L49.4341 108.175L50.5793 107.953C52.4879 107.667 54.6827 107.572 56.305 107.477H59.1679C59.1679 107.477 58.7544 107.985 58.0546 108.747C57.1829 109.689 56.2361 110.56 55.2235 111.35C55.0301 111.47 54.849 111.608 54.6827 111.763L54.3964 111.953L54.1102 112.144L52.9332 112.843L51.7244 113.414C51.3376 113.603 50.9326 113.752 50.5156 113.859C48.7416 114.227 46.899 114.084 45.2034 113.446C44.4316 113.187 43.6945 112.835 43.0085 112.398C43.0797 112.232 43.1648 112.073 43.263 111.922Z" fill="#FFD40F" />
        <path d="M42.5308 109.415C42.2326 109.785 41.8784 110.106 41.4811 110.368L41.0039 110.653C40.5227 110.042 40.107 109.382 39.7633 108.685C38.9678 107.244 38.5416 105.63 38.5228 103.986C38.4916 103.313 38.5559 102.64 38.7136 101.985C38.7136 101.636 38.7136 101.318 38.9363 101.001C39.1589 100.683 39.1271 100.334 39.2226 100.048C39.3733 99.5408 39.5538 99.0425 39.7633 98.5561C39.8103 98.4371 39.8634 98.3205 39.9224 98.2069C39.9097 98.1014 39.9097 97.9948 39.9224 97.8894C39.9858 97.6948 40.0601 97.504 40.1451 97.3178C40.4631 96.5876 40.6858 96.1748 40.6858 96.1748C40.6858 96.1748 41.2584 97.0638 41.9582 98.3974L42.499 99.5087C42.5705 99.7048 42.6555 99.8958 42.7535 100.08C42.7535 100.302 42.7535 100.493 42.9761 100.715C43.3076 101.548 43.5631 102.409 43.7396 103.287C43.7396 103.636 43.7396 103.986 43.9304 104.303C44.1213 104.621 43.9304 104.938 43.9304 105.256C43.9293 106.101 43.7785 106.939 43.4851 107.732C43.2463 108.334 42.9252 108.901 42.5308 109.415Z" fill="#FFD40F" />
        <path d="M57.5723 97.5693H56.3954C55.5867 97.5054 54.787 97.3564 54.0097 97.1248C53.9978 96.9451 53.9978 96.7648 54.0097 96.585C54.0097 96.4263 54.0096 96.204 54.2323 95.9818C54.38 95.7238 54.5503 95.4794 54.7413 95.2515C55.0497 94.6191 55.4578 94.0402 55.95 93.5369L56.3636 93.1242C56.518 92.9595 56.6885 92.8106 56.8725 92.6797C57.2481 92.3717 57.6411 92.0855 58.0495 91.8224C58.5242 91.5537 59.0126 91.3099 59.5127 91.0921C60.0535 90.8381 60.5625 90.5841 61.135 90.3618C62.2166 89.9173 63.3935 89.5045 64.316 89.1235L66.9244 88.2345L67.9741 87.917C67.9741 87.917 67.9741 88.298 67.5606 88.933L67.0199 90.0126C66.7828 90.4629 66.5171 90.8977 66.2246 91.3144C65.9512 91.8117 65.643 92.2892 65.3021 92.7432L65.0477 93.0924L64.7614 93.4417L64.157 94.1402C63.7649 94.5845 63.3395 94.9985 62.8846 95.3785L62.2484 95.9183L61.5168 96.3628C60.6563 96.8574 59.722 97.2112 58.7493 97.4106C58.3605 97.4869 57.9675 97.5399 57.5723 97.5693Z" fill="#FFD40F" />
        <path d="M53.281 92.4597C53.2049 93.1299 53.0224 93.7837 52.7402 94.3965L52.3585 95.0633C52.2647 95.2473 52.1471 95.4181 52.0086 95.5713L51.6269 95.9841C50.9881 95.5191 50.392 94.9985 49.8455 94.4283L49.1139 93.6028C48.8912 93.2852 48.6367 92.9677 48.4141 92.6185C47.926 91.8915 47.5407 91.1009 47.2689 90.2689C47.2689 90.0466 47.2689 89.8244 47.2689 89.6021C47.2538 89.3695 47.2538 89.1362 47.2689 88.9036C47.1846 88.4527 47.1315 87.9965 47.1099 87.5383C47.1099 86.6175 47.1099 85.6967 47.1099 84.903C47.1099 84.1092 47.1099 84.1409 47.1099 83.8234C47.1099 83.5059 47.1099 83.1884 47.1099 82.9344C47.1099 82.6804 47.1099 82.1406 47.1099 82.1406L47.8415 82.8391C49.2699 84.106 50.5216 85.5583 51.5632 87.1573C51.8589 87.605 52.1245 88.0717 52.3585 88.5543C52.5844 89.0049 52.7758 89.4719 52.9311 89.9514C53.0618 90.3859 53.147 90.8328 53.1855 91.2849C53.2014 91.4857 53.2014 91.6874 53.1855 91.8882V92.0787C53.2454 92.197 53.278 92.3272 53.281 92.4597Z" fill="#FFD40F" />
        <path d="M65.9423 78.6152C65.5538 78.8817 65.1502 79.1255 64.7335 79.3455C63.9886 79.6806 63.2102 79.936 62.4114 80.1075C61.6176 80.2781 60.8046 80.3421 59.9939 80.298C59.8829 79.6465 59.8829 78.981 59.9939 78.3295C60.0645 78.0154 60.1603 77.7075 60.2801 77.4087C60.3763 77.0444 60.5151 76.6927 60.6937 76.3609C60.8768 75.9848 61.0895 75.6238 61.3299 75.2814C61.4687 75.0938 61.6173 74.9136 61.7752 74.7416L62.0297 74.4558L62.2523 74.1701C63.9565 72.5726 65.7979 71.1277 67.7554 69.8519C68.6461 69.2169 69.4414 68.7089 70.0457 68.3279L71 67.7246V68.8041C71 69.4709 70.6819 70.4235 70.4275 71.4395C70.0948 72.5276 69.6801 73.589 69.1869 74.6146C69.081 74.8946 68.9422 75.1611 68.7733 75.4084C68.6438 75.6628 68.4949 75.9069 68.328 76.1386C68.0017 76.591 67.6513 77.0255 67.2783 77.4404C66.8856 77.888 66.4366 78.2828 65.9423 78.6152Z" fill="#FFD40F" />
        <path d="M57.3824 79.8233C56.628 79.5474 55.9033 79.1964 55.2194 78.7755C54.5429 78.3945 53.913 77.9364 53.3426 77.4102C53.0117 77.1275 52.7033 76.8197 52.4201 76.4894C52.1195 76.1605 51.8431 75.8103 51.593 75.4416C51.321 75.0574 51.0966 74.6416 50.925 74.2033C50.7342 73.7906 50.5751 73.3461 50.3843 72.9333C50.1179 72.0987 49.8949 71.2508 49.7163 70.3932C49.5254 69.5994 49.3982 68.9009 49.3345 68.4246C49.3198 68.1602 49.3198 67.8952 49.3345 67.6309L50.2252 68.0754C50.7978 68.3929 51.5612 68.8057 52.4201 69.3772C53.3292 69.9533 54.1908 70.601 54.9967 71.314C55.7971 72.0015 56.503 72.7915 57.0961 73.6636C57.3601 74.0314 57.5641 74.4386 57.7005 74.8701C57.8461 75.2417 57.9631 75.6238 58.0504 76.0131C58.0793 76.3618 58.0793 76.7123 58.0504 77.0609C58.1026 77.3656 58.1026 77.677 58.0504 77.9817C57.9338 78.6289 57.7079 79.2516 57.3824 79.8233Z" fill="#FFD40F" />
        <path d="M68.1636 53.532C68.1636 53.9765 68.1636 54.421 67.9092 54.8338C67.7432 55.6759 67.4538 56.489 67.0503 57.2469C66.5849 58.1091 65.9712 58.883 65.2371 59.533C64.6449 60.0754 63.9814 60.5347 63.2649 60.8983C62.5399 61.2699 61.7702 61.5474 60.9746 61.7238L60.8156 61.2158C60.68 60.7484 60.5842 60.2704 60.5293 59.787C60.4401 58.2021 60.7808 56.6226 61.5154 55.2148C61.5154 54.8973 61.8653 54.6115 62.0562 54.294L62.3424 53.8178L62.6606 53.3415C63.2013 52.5477 63.8057 51.7539 64.4101 50.9919C65.0145 50.2299 65.6189 49.5314 66.1278 48.8964C67.1457 47.6581 67.941 46.8008 67.941 46.8008C67.941 46.8008 67.941 47.4358 68.1636 48.4201C68.2171 48.9904 68.2171 49.5644 68.1636 50.1346C68.1636 50.8014 68.1636 51.4999 68.1636 52.1985C68.1636 52.897 68.2273 53.0875 68.1636 53.532Z" fill="#FFD40F" />
        <path d="M51.5592 59.2791L51.2092 58.9616L50.8275 58.5806C50.5879 58.3307 50.3648 58.0656 50.1595 57.7868C49.9404 57.525 49.7385 57.2493 49.5551 56.9613L49.0144 56.1358C48.7105 55.6873 48.4343 55.2207 48.1873 54.7387C48.0686 54.5336 47.9624 54.3216 47.8692 54.1037L47.5829 53.5639C47.3926 53.1924 47.2227 52.8108 47.074 52.4209C47.074 52.4209 48.1555 52.6114 49.6506 52.9924L50.8593 53.3417C51.2411 53.5004 51.6864 53.6274 52.0999 53.8179C52.9742 54.1507 53.8245 54.5432 54.6447 54.9927C55.2349 55.3145 55.7893 55.6977 56.2988 56.1358C56.9498 56.6973 57.4893 57.3758 57.8893 58.1361C58.1828 58.7358 58.3762 59.3792 58.4619 60.0412C58.5402 60.5036 58.5402 60.9758 58.4619 61.4382C58.4762 61.6178 58.4762 61.7983 58.4619 61.978C57.6646 61.9065 56.8763 61.7577 56.108 61.5335C54.4395 61.1376 52.8837 60.3665 51.5592 59.2791Z" fill="#FFD40F" />
        <path d="M60.0267 40.3577C59.5915 41.0386 59.0792 41.6672 58.4998 42.231C57.9143 42.7761 57.2623 43.2455 56.5594 43.628L56.2413 43.1835C55.9917 42.7689 55.7788 42.3333 55.6051 41.8817C55.3195 41.2479 55.137 40.5726 55.0643 39.8814C55.0643 39.5004 55.0643 39.0559 55.0643 38.6431C55.0186 38.1786 55.0186 37.7106 55.0643 37.2461C55.1614 36.7206 55.2889 36.2011 55.4461 35.6903C55.4461 35.4045 55.6369 35.1188 55.7005 34.8647L55.9868 34.0392C56.3685 32.9597 56.8139 31.8484 57.2274 30.8641L57.9272 29.4988L58.4044 28.578L58.8497 27.5938C59.0405 27.9105 59.2105 28.2393 59.3587 28.578C59.3587 28.8638 59.6449 29.2766 59.8358 29.6893L60.3447 31.1181C60.3447 31.3721 60.5038 31.6261 60.5674 31.8801C60.6565 32.1619 60.7308 32.448 60.7901 32.7374C60.7901 33.2772 61.0128 33.8805 61.1082 34.452C61.1386 35.0337 61.1386 35.6166 61.1082 36.1983C61.1561 36.7476 61.1561 37.3 61.1082 37.8493C60.9111 38.7466 60.544 39.598 60.0267 40.3577Z" fill="#FFD40F" />
        <path d="M45.5207 43.1465C45.1092 42.9115 44.7158 42.6462 44.3438 42.3528L43.294 41.432L42.3397 40.5747L41.5763 39.7492L41.2582 39.3999L40.9719 39.0824L40.4312 38.4791H41.4491C42.3072 38.4288 43.1675 38.4288 44.0257 38.4791C45.0912 38.5038 46.1538 38.5993 47.2066 38.7649L48.0655 38.9236L48.8289 39.1459C49.3346 39.273 49.8252 39.454 50.2922 39.6857C50.7182 39.8635 51.1235 40.0871 51.501 40.3524C51.8218 40.6011 52.1297 40.8661 52.4234 41.1462C52.8742 41.6504 53.2492 42.2173 53.5368 42.829C53.7342 43.2557 53.8836 43.703 53.9821 44.1626C53.9821 44.4801 53.9821 44.7023 53.9821 44.7023C53.1963 44.8559 52.3971 44.9304 51.5964 44.9246C50.8075 44.9341 50.0195 44.8703 49.2425 44.7341C48.3539 44.5938 47.4876 44.3376 46.6659 43.9721C46.2568 43.7369 45.873 43.4602 45.5207 43.1465Z" fill="#FFD40F" />
        <path d="M49.9741 24.0996C49.7382 24.8528 49.4181 25.5771 49.0198 26.2587C48.61 26.9305 48.1186 27.5491 47.5565 28.1003C47 27.7232 46.5153 27.2501 46.1251 26.7032C45.9266 26.4404 45.746 26.1646 45.5843 25.8777C45.4329 25.5594 45.3053 25.2305 45.2026 24.8934C44.853 24.0649 44.6383 23.186 44.5664 22.2898C44.4756 21.2334 44.4756 20.1712 44.5664 19.1147C44.5664 17.9399 44.7573 16.7969 44.8845 15.7174C45.0117 14.6378 45.139 13.7488 45.2662 13.082L45.2026 11.9072C45.2806 11.9677 45.3455 12.0433 45.3934 12.1295L45.9342 12.7328C46.3795 13.2725 46.9839 14.0345 47.5883 14.9236C48.238 15.9332 48.8019 16.9953 49.2742 18.0987C49.7327 19.1051 50.0332 20.176 50.1649 21.2738C50.1794 21.5382 50.1794 21.8032 50.1649 22.0676C50.179 22.3108 50.179 22.5546 50.1649 22.7978C50.1314 23.2356 50.0677 23.6706 49.9741 24.0996Z" fill="#FFD40F" />
        <path d="M36.771 30.511L36.103 30.257H35.7531H35.435C34.5986 29.9191 33.7902 29.5156 33.0175 29.0505C32.2858 28.6694 31.6815 28.2884 31.2361 28.0027L30.759 27.6534H30.5681H30.8226L31.5224 27.3994C32.1268 27.2089 32.9857 26.9549 33.9718 26.7326L35.5623 26.3834H36.3893H37.2164C38.272 26.242 39.3417 26.242 40.3973 26.3834C41.2614 26.5276 42.0916 26.8289 42.8467 27.2724C43.1663 27.4504 43.465 27.6634 43.7374 27.9074C43.9757 28.1135 44.1989 28.3363 44.4054 28.5742C44.8228 29.0842 45.1655 29.6508 45.4233 30.257C44.6977 30.6098 43.9419 30.8967 43.1648 31.1143C42.3952 31.3268 41.6069 31.465 40.8109 31.527C39.9236 31.637 39.0261 31.637 38.1388 31.527L36.771 30.511Z" fill="#FFD40F" />
        <path d="M34.16 14.3832C34.0813 14.5817 33.9855 14.7729 33.8737 14.9548L33.492 14.796C33.0407 14.5902 32.6139 14.3346 32.2196 14.034C30.9017 13.0668 29.8867 11.7453 29.2931 10.2238C29.0279 9.55035 28.8048 8.86109 28.6251 8.16002C28.3706 7.27099 28.1479 6.28671 27.9571 5.33418C27.7662 4.38165 27.6072 3.52437 27.4799 2.73059C27.2255 1.14304 27.0664 0 27.0664 0L28.4978 0.920781L29.9293 1.96857C30.4382 2.41308 30.979 2.88935 31.488 3.39736L32.4423 4.3499L32.6649 4.6039L32.8876 4.88966L33.3011 5.42943C33.8025 6.11222 34.2291 6.84669 34.5735 7.62025C34.7553 8.09362 34.8937 8.58247 34.987 9.0808C35.0164 9.53543 35.0164 9.99147 34.987 10.4461C34.9839 11.2378 34.8879 12.0263 34.7008 12.7957C34.5676 13.3397 34.3866 13.8709 34.16 14.3832Z" fill="#FFD40F" />
        <path d="M21.4703 19.8461L19.7526 19.4651L18.5438 19.0523L17.3032 18.6396C17.3032 18.6396 18.1621 18.0045 19.4663 17.2108C20.2075 16.7583 20.972 16.345 21.7566 15.9725C22.5889 15.5789 23.4503 15.2498 24.3332 14.9882C24.9841 14.7715 25.6556 14.6225 26.3372 14.5437C27.9131 14.3632 29.5021 14.7457 30.8224 15.6232C31.2268 15.8754 31.6005 16.1737 31.9357 16.5122L32.1902 16.8298L31.6812 17.2743C31.2369 17.6475 30.7575 17.9771 30.2498 18.2586C29.5868 18.677 28.8835 19.028 28.1504 19.3063L26.9098 19.6874C26.4606 19.8051 26.0035 19.89 25.542 19.9414C24.186 20.0775 22.8184 20.0455 21.4703 19.8461Z" fill="#FFD40F" />
        <path d="M0.954291 131.511L2.32211 131.352H3.18098H4.10346L6.2029 131.003L8.52502 130.495L9.73379 130.209L10.9744 129.86C11.8014 129.638 12.6603 129.447 13.4555 129.161C16.5105 128.2 19.4968 127.033 22.3941 125.669L24.0164 124.875L24.6844 124.558L25.2252 124.24L26.2749 123.669L27.3246 123.097L29.9966 121.446C32.6527 119.72 35.1924 117.821 37.5992 115.763C39.9685 113.676 42.1998 111.438 44.2792 109.063C44.5019 108.841 44.6927 108.587 44.8836 108.365C45.0745 108.142 45.2335 107.92 45.4244 107.729L46.2832 106.682L46.7922 105.983L46.9831 105.729L47.6829 104.808C47.9055 104.491 48.1918 104.142 48.4781 103.697L49.4324 102.268C49.6233 101.983 49.8141 101.729 50.005 101.411C50.1958 101.094 50.3549 100.84 50.5457 100.522L51.7227 98.5534L52.8997 96.3626L53.1859 95.8228L53.4404 95.2513C53.6313 94.8703 53.8221 94.4893 53.9812 94.0765C55.2699 91.2649 56.3335 88.3559 57.1622 85.3767C57.1622 85.091 57.353 84.7735 57.4167 84.5195C57.5161 84.2626 57.5906 83.9968 57.6393 83.7257C57.6393 83.2177 57.8938 82.7731 57.9574 82.4239L58.2437 81.2809C58.2302 81.1861 58.2302 81.0899 58.2437 80.9951C58.2437 80.8046 58.2437 80.5188 58.4028 80.1378L58.6572 78.836C58.6572 78.328 58.8799 77.7565 58.9435 77.1532C59.0071 76.5499 59.1026 75.8197 59.198 75.1211V74.5814C59.198 74.3909 59.198 74.2004 59.198 74.0099V72.8351C59.198 71.2793 59.198 69.66 59.3889 67.9137C59.5797 66.1673 59.3889 64.5163 59.198 62.9605V61.7857C59.198 61.5952 59.198 61.4047 59.198 61.2459V60.6744C59.198 59.9759 59.0071 59.2774 58.9435 58.6741C58.8799 58.0708 58.7209 57.4676 58.6572 56.9595L58.4028 55.6577C58.4028 55.2767 58.4028 54.991 58.2437 54.8005C58.2302 54.7057 58.2302 54.6095 58.2437 54.5147L57.9256 53.0859C57.9256 52.7366 57.7348 52.2921 57.6075 51.7841C57.5548 51.514 57.4804 51.2485 57.3848 50.9903C57.3848 50.7363 57.3848 50.4506 57.1304 50.1331C56.3017 47.1539 55.2381 44.2449 53.9494 41.4333C53.9494 41.0522 53.5995 40.6395 53.4086 40.2585L53.1541 39.687L52.8679 39.1472L51.6909 36.9881L50.5457 34.9243L50.005 34.0353L49.4324 33.2097L48.3827 31.7492C48.0964 31.3047 47.8101 30.9554 47.5874 30.6379L46.8876 29.7171L46.7922 29.5266L46.2832 28.8281L45.4244 27.7803C45.2335 27.5898 45.0745 27.3675 44.8836 27.1453C44.6927 26.923 44.5019 26.669 44.2792 26.4468C42.1998 24.072 39.9685 21.8341 37.5992 19.7473C35.1924 17.6887 32.6527 15.7902 29.9966 14.0638C28.8833 13.3971 27.9608 12.7938 27.3246 12.4445L26.2749 11.8413L25.2252 11.2697L24.6844 10.984L24.0164 10.6347L23.5074 10.4125C22.9247 10.4445 22.3406 10.4445 21.7579 10.4125C20.0633 10.3675 18.4004 9.94434 16.891 9.17418C16.0594 8.73756 15.2893 8.19307 14.6007 7.55487L13.5828 6.60234C13.2691 6.3009 12.9718 5.98294 12.6921 5.64981C12.1831 5.04654 11.706 4.50677 11.3879 4.09401C11.2157 3.89247 11.0564 3.68038 10.9108 3.45898H11.9287H14.5053H15.3005H16.0957L17.718 3.7765C18.8227 3.98993 19.893 4.35314 20.899 4.85603C21.6545 5.26472 22.3327 5.80198 22.903 6.44358C23.3335 6.96774 23.6772 7.5573 23.921 8.18989C24.0857 8.62042 24.203 9.06757 24.2709 9.52344C24.2709 9.52344 24.2709 9.52344 24.2709 9.71394L24.9707 10.0315L25.5114 10.349L26.593 10.9522L27.6427 11.5238L30.3465 13.1748C33.0311 14.9125 35.5926 16.8327 38.0127 18.9218C40.4433 21.1331 42.7178 23.5095 44.82 26.034C45.0427 26.2563 45.2335 26.5103 45.4244 26.7325L45.9651 27.3993L46.824 28.4471L47.3329 29.1456L47.5238 29.3996L48.2236 30.3521L49.0507 31.4317L50.005 32.924L50.5775 33.7495C50.7684 34.0353 50.9275 34.3528 51.1501 34.6703L52.3271 36.6706L53.5041 38.8614L53.7903 39.4329L54.0766 40.0045C54.2357 40.3855 54.4265 40.7665 54.6174 41.1475C55.9009 43.9939 56.9644 46.9342 57.7984 49.9425C57.7984 50.2601 57.9892 50.5458 58.0529 50.8316C58.1165 51.1173 58.2119 51.3713 58.2755 51.6254L58.5936 52.9589C58.5936 53.6574 58.8799 54.1019 58.8799 54.1019C58.8864 54.1971 58.8864 54.2926 58.8799 54.3877C58.8799 54.5782 58.8799 54.864 58.8799 55.245L59.1344 56.5468C59.1344 57.0865 59.3571 57.6581 59.4207 58.2931C59.4843 58.9281 59.5797 59.5949 59.6751 60.3251V60.8649C59.6751 61.0554 59.6751 61.2459 59.6751 61.4364V62.6112C59.8342 64.1988 59.8342 65.7863 59.8978 67.6279C59.9614 69.4695 59.8978 71.0253 59.6751 72.6128V73.7876C59.6751 73.9781 59.6751 74.1686 59.6751 74.3591V74.8989C59.6751 75.6292 59.6752 76.3277 59.4207 76.9627C59.1662 77.5977 59.198 78.1693 59.1344 78.6773L58.8799 79.9791C58.8799 80.3601 58.8799 80.6458 58.8799 80.8363C58.8799 81.0268 58.8799 81.1538 58.8799 81.1538C58.8799 81.1538 58.8799 81.5666 58.5936 82.2651L58.2755 83.5987C58.2755 83.8527 58.2755 84.1067 58.0529 84.3925C57.8302 84.6782 58.0528 84.964 57.7984 85.2815C56.9696 88.2915 55.906 91.2322 54.6174 94.0765C54.4265 94.4575 54.2357 94.8386 54.0766 95.2196L53.7903 95.8228L53.5041 96.3626L52.3271 98.5534L51.1501 100.554C50.9275 100.871 50.7684 101.189 50.5775 101.475L50.005 102.332L49.0507 103.792L48.3827 104.777L47.6829 105.729L47.492 105.983L46.9831 106.65L46.1242 107.729C45.9333 107.92 45.7743 108.142 45.5834 108.365L44.979 109.095C42.8656 111.479 40.6025 113.728 38.2035 115.826C35.7834 117.915 33.222 119.835 30.5374 121.573L27.8336 123.224L26.7838 123.827L25.7023 124.399L25.1615 124.716L24.4617 125.034L22.8712 125.828C19.9478 127.216 16.9288 128.393 13.8373 129.352C13.0102 129.638 12.1513 129.86 11.2925 130.082L10.0519 130.432L8.84312 130.717L6.48919 131.225L4.38975 131.606H3.43546H2.57659L1.20877 131.797H0V131.162L0.954291 131.511Z" fill="#FFD40F" />
    </symbol>
    <symbol id="upload-cloud" viewBox="0 0 24 24" fill="none" xmlns="http://www.w3.org/2000/svg">
        <path d="M6.28571 19C3.91878 19 2 17.1038 2 14.7647C2 12.4256 3.91878 10.5294 6.28571 10.5294C6.56983 10.5294 6.8475 10.5567 7.11616 10.6089M14.381 8.02721C14.9767 7.81911 15.6178 7.70588 16.2857 7.70588C16.9404 7.70588 17.5693 7.81468 18.1551 8.01498M7.11616 10.6089C6.88706 9.9978 6.7619 9.33687 6.7619 8.64706C6.7619 5.52827 9.32028 3 12.4762 3C15.4159 3 17.8371 5.19371 18.1551 8.01498M7.11616 10.6089C7.68059 10.7184 8.20528 10.9374 8.66667 11.2426M18.1551 8.01498C20.393 8.78024 22 10.8811 22 13.3529C22 16.0599 20.0726 18.3221 17.5 18.8722" stroke="currentColor" stroke-width="1.5" stroke-linecap="round" />
        <path d="M12 16V22M12 16L14 18M12 16L10 18" stroke="currentColor" stroke-width="1.5" stroke-linecap="round" stroke-linejoin="round" />
    </symbol>
    <symbol id="plus" viewBox="0 0 25 25" fill="none" xmlns="http://www.w3.org/2000/svg">
        <path d="M19.5 11.5H13.5V5.5C13.5 5.23478 13.3946 4.98043 13.2071 4.79289C13.0196 4.60536 12.7652 4.5 12.5 4.5C12.2348 4.5 11.9804 4.60536 11.7929 4.79289C11.6054 4.98043 11.5 5.23478 11.5 5.5V11.5H5.5C5.23478 11.5 4.98043 11.6054 4.79289 11.7929C4.60536 11.9804 4.5 12.2348 4.5 12.5C4.5 12.7652 4.60536 13.0196 4.79289 13.2071C4.98043 13.3946 5.23478 13.5 5.5 13.5H11.5V19.5C11.5 19.7652 11.6054 20.0196 11.7929 20.2071C11.9804 20.3946 12.2348 20.5 12.5 20.5C12.7652 20.5 13.0196 20.3946 13.2071 20.2071C13.3946 20.0196 13.5 19.7652 13.5 19.5V13.5H19.5C19.7652 13.5 20.0196 13.3946 20.2071 13.2071C20.3946 13.0196 20.5 12.7652 20.5 12.5C20.5 12.2348 20.3946 11.9804 20.2071 11.7929C20.0196 11.6054 19.7652 11.5 19.5 11.5Z" fill="#DEB600" />
    </symbol>
    <symbol id="question-mark" viewBox="0 0 27 26" fill="none" xmlns="http://www.w3.org/2000/svg">
        <path fill-rule="evenodd" clip-rule="evenodd" d="M13.5 26C20.6797 26 26.5 20.1797 26.5 13C26.5 5.8203 20.6797 0 13.5 0C6.3203 0 0.5 5.8203 0.5 13C0.5 20.1797 6.3203 26 13.5 26ZM12.704 13.506C12.488 13.926 12.38 14.382 12.38 14.874H14.45C14.45 14.526 14.558 14.184 14.774 13.848C14.99 13.512 15.254 13.2 15.566 12.912C15.878 12.612 16.19 12.306 16.502 11.994C16.814 11.682 17.078 11.31 17.294 10.878C17.51 10.434 17.618 9.96 17.618 9.456C17.618 8.376 17.228 7.53 16.448 6.918C15.668 6.306 14.744 6 13.676 6C12.728 6 11.876 6.234 11.12 6.702C10.376 7.158 9.836 7.812 9.5 8.664L11.282 9.672C11.462 9.144 11.756 8.736 12.164 8.448C12.572 8.16 13.058 8.016 13.622 8.016C14.21 8.016 14.678 8.154 15.026 8.43C15.374 8.694 15.548 9.078 15.548 9.582C15.548 9.942 15.44 10.29 15.224 10.626C15.008 10.95 14.744 11.256 14.432 11.544C14.12 11.82 13.808 12.114 13.496 12.426C13.184 12.726 12.92 13.086 12.704 13.506ZM13.424 19.05C13.796 19.05 14.114 18.918 14.378 18.654C14.642 18.39 14.774 18.072 14.774 17.7C14.774 17.328 14.642 17.01 14.378 16.746C14.114 16.482 13.796 16.35 13.424 16.35C13.04 16.35 12.716 16.482 12.452 16.746C12.2 17.01 12.074 17.328 12.074 17.7C12.074 18.072 12.206 18.39 12.47 18.654C12.734 18.918 13.052 19.05 13.424 19.05Z" fill="currentColor" />
    </symbol>
    <symbol id="tooltip-1" viewBox="0 0 64 64" fill="none" xmlns="http://www.w3.org/2000/svg">
        <path d="M11.1999 48.1943C11.1999 48.1943 10.9413 50.2077 11.1999 51.165C11.3799 51.829 11.5519 52.9477 12.2399 52.9477H16.1026C16.7906 52.9477 16.9626 51.829 17.1426 51.165C17.4013 50.209 17.1426 48.1943 17.1426 48.1943" fill="#D9D9D9" />
        <path d="M11.1999 48.1943C11.1999 48.1943 10.9413 50.2077 11.1999 51.165C11.3799 51.829 11.5519 52.9477 12.2399 52.9477H16.1026C16.7906 52.9477 16.9626 51.829 17.1426 51.165C17.4013 50.209 17.1426 48.1943 17.1426 48.1943" stroke="black" stroke-width="0.5" stroke-linecap="round" stroke-linejoin="round" />
        <path d="M52.0573 28.8799H11.9427C8.66062 28.8799 6 31.5405 6 34.8226V42.2519C6 45.5339 8.66062 48.1945 11.9427 48.1945H52.0573C55.3394 48.1945 58 45.5339 58 42.2519V34.8226C58 31.5405 55.3394 28.8799 52.0573 28.8799Z" stroke="black" stroke-width="0.5" stroke-linecap="round" stroke-linejoin="round" />
        <path d="M46.8574 48.1943C46.8574 48.1943 46.5987 50.2077 46.8574 51.165C47.0374 51.829 47.2094 52.9477 47.8974 52.9477H51.7601C52.4481 52.9477 52.6201 51.829 52.8001 51.165C53.0587 50.209 52.8001 48.1943 52.8001 48.1943" fill="#D9D9D9" />
        <path d="M46.8574 48.1943C46.8574 48.1943 46.5987 50.2077 46.8574 51.165C47.0374 51.829 47.2094 52.9477 47.8974 52.9477H51.7601C52.4481 52.9477 52.6201 51.829 52.8001 51.165C53.0587 50.209 52.8001 48.1943 52.8001 48.1943" stroke="black" stroke-width="0.5" stroke-linecap="round" stroke-linejoin="round" />
        <path d="M14.172 42.2516C15.8133 42.2516 17.144 40.921 17.144 39.2796C17.144 37.6382 15.8133 36.3076 14.172 36.3076C12.5306 36.3076 11.2 37.6382 11.2 39.2796C11.2 40.921 12.5306 42.2516 14.172 42.2516Z" fill="#FFD40F" stroke="black" stroke-width="0.5" stroke-linecap="round" stroke-linejoin="round" />
        <path d="M11.9426 28.8801L15.36 15.5081C15.944 13.2241 18.4973 11.0508 20.8573 11.0508H43.1426C45.5026 11.0508 48.056 13.2241 48.64 15.5081L52.0573 28.8801" stroke="black" stroke-width="0.5" stroke-linecap="round" stroke-linejoin="round" />
        <path d="M49.828 42.2516C51.4693 42.2516 52.8 40.921 52.8 39.2796C52.8 37.6382 51.4693 36.3076 49.828 36.3076C48.1866 36.3076 46.856 37.6382 46.856 39.2796C46.856 40.921 48.1866 42.2516 49.828 42.2516Z" fill="#FFD40F" stroke="black" stroke-width="0.5" stroke-linecap="round" stroke-linejoin="round" />
    </symbol>
    <symbol id="tooltip-2" viewBox="0 0 64 64" fill="none" xmlns="http://www.w3.org/2000/svg">
        <path d="M11.1999 48.1943C11.1999 48.1943 10.9413 50.2077 11.1999 51.165C11.3799 51.829 11.5519 52.9477 12.2399 52.9477H16.1026C16.7906 52.9477 16.9626 51.829 17.1426 51.165C17.4013 50.209 17.1426 48.1943 17.1426 48.1943" fill="#D9D9D9" />
        <path d="M11.1999 48.1943C11.1999 48.1943 10.9413 50.2077 11.1999 51.165C11.3799 51.829 11.5519 52.9477 12.2399 52.9477H16.1026C16.7906 52.9477 16.9626 51.829 17.1426 51.165C17.4013 50.209 17.1426 48.1943 17.1426 48.1943" stroke="black" stroke-width="0.5" stroke-linecap="round" stroke-linejoin="round" />
        <path d="M52.0573 28.8799H11.9427C8.66062 28.8799 6 31.5405 6 34.8226V42.2519C6 45.5339 8.66062 48.1945 11.9427 48.1945H52.0573C55.3394 48.1945 58 45.5339 58 42.2519V34.8226C58 31.5405 55.3394 28.8799 52.0573 28.8799Z" stroke="black" stroke-width="0.5" stroke-linecap="round" stroke-linejoin="round" />
        <path d="M46.8574 48.1943C46.8574 48.1943 46.5987 50.2077 46.8574 51.165C47.0374 51.829 47.2094 52.9477 47.8974 52.9477H51.7601C52.4481 52.9477 52.6201 51.829 52.8001 51.165C53.0587 50.209 52.8001 48.1943 52.8001 48.1943" fill="#D9D9D9" />
        <path d="M46.8574 48.1943C46.8574 48.1943 46.5987 50.2077 46.8574 51.165C47.0374 51.829 47.2094 52.9477 47.8974 52.9477H51.7601C52.4481 52.9477 52.6201 51.829 52.8001 51.165C53.0587 50.209 52.8001 48.1943 52.8001 48.1943" stroke="black" stroke-width="0.5" stroke-linecap="round" stroke-linejoin="round" />
        <path d="M11.9426 28.8801L15.36 15.5081C15.944 13.2241 18.4973 11.0508 20.8573 11.0508H43.1426C45.5026 11.0508 48.056 13.2241 48.64 15.5081L52.0573 28.8801" stroke="black" stroke-width="0.5" stroke-linecap="round" stroke-linejoin="round" />
        <rect x="25.25" y="40.25" width="14.5" height="4.5" rx="1.75" fill="white" stroke="black" stroke-width="0.5" />
        <rect x="9.25" y="36.25" width="10.5" height="3.5" rx="0.75" fill="#D12F26" stroke="black" stroke-width="0.5" />
        <rect x="44.25" y="36.25" width="10.5" height="3.5" rx="0.75" fill="#D12F26" stroke="black" stroke-width="0.5" />
    </symbol>
    <symbol id="tooltip-3"  width="64" height="64" viewBox="0 0 64 64" fill="none" xmlns="http://www.w3.org/2000/svg">
        <path d="M9.0816 19.6186L4 29H51.5L41.4763 18.5405C40.5332 17.5564 39.2293 17 37.8663 17H13.4781C11.6431 17 9.95556 18.0051 9.0816 19.6186Z" fill="#FFF3BE" stroke="black" stroke-width="0.5" />
        <rect x="2.25" y="28.25" width="59.5" height="13.5" rx="3.75" fill="#FFF3BE" stroke="black" stroke-width="0.5" />
        <rect x="61.25" y="33.25" width="1.5" height="3.5" rx="0.75" fill="#D12F26" stroke="black" stroke-width="0.5" />
        <circle cx="16" cy="42" r="4.75" fill="#D9D9D9" stroke="black" stroke-width="0.5" />
        <circle cx="48" cy="42" r="4.75" fill="#D9D9D9" stroke="black" stroke-width="0.5" />
        <path d="M23 17V28" stroke="black" stroke-width="0.5" />
    </symbol>
    <symbol id="tooltip-4" viewBox="0 0 64 64" fill="none" xmlns="http://www.w3.org/2000/svg">
        <path d="M54.9184 19.6186L60 29H12.5L22.5237 18.5405C23.4668 17.5564 24.7707 17 26.1337 17H50.5219C52.3569 17 54.0444 18.0051 54.9184 19.6186Z" fill="#FFF3BE" stroke="black" stroke-width="0.5" />
        <rect x="-0.25" y="0.25" width="59.5" height="13.5" rx="3.75" transform="matrix(-1 0 0 1 61.5 28)" fill="#FFF3BE" stroke="black" stroke-width="0.5" />
        <rect x="-0.25" y="0.25" width="1.5" height="3.5" rx="0.75" transform="matrix(-1 0 0 1 2.5 33)" fill="#D12F26" stroke="black" stroke-width="0.5" />
        <circle cx="5" cy="5" r="4.75" transform="matrix(-1 0 0 1 53 37)" fill="#D9D9D9" stroke="black" stroke-width="0.5" />
        <circle cx="5" cy="5" r="4.75" transform="matrix(-1 0 0 1 21 37)" fill="#D9D9D9" stroke="black" stroke-width="0.5" />
        <path d="M41 17V28" stroke="black" stroke-width="0.5" />
    </symbol>
    <symbol id="tooltip-5" viewBox="0 0 64 64" fill="none" xmlns="http://www.w3.org/2000/svg">
        <path d="M20 12V7H44V12" stroke="black" stroke-width="0.5" />
        <path d="M20 53C23.4909 56.7953 37.3673 59.6797 44 53" stroke="black" stroke-width="0.5" />
        <path d="M16 16.5556C16 15.3473 16.4816 14.1886 17.3389 13.3343C18.1962 12.48 19.359 12 20.5714 12C21.7838 12 22.9466 12.48 23.8039 13.3343C24.6612 14.1886 25.1429 15.3473 25.1429 16.5556V21.1111C25.1429 22.3193 24.6612 23.478 23.8039 24.3324C22.9466 25.1867 21.7838 25.6667 20.5714 25.6667C19.359 25.6667 18.1962 25.1867 17.3389 24.3324C16.4816 23.478 16 22.3193 16 21.1111V16.5556ZM16 43.8889C16 42.6807 16.4816 41.522 17.3389 40.6676C18.1962 39.8133 19.359 39.3333 20.5714 39.3333C21.7838 39.3333 22.9466 39.8133 23.8039 40.6676C24.6612 41.522 25.1429 42.6807 25.1429 43.8889V48.4444C25.1429 49.6527 24.6612 50.8114 23.8039 51.6657C22.9466 52.52 21.7838 53 20.5714 53C19.359 53 18.1962 52.52 17.3389 51.6657C16.4816 50.8114 16 49.6527 16 48.4444V43.8889ZM38.8571 16.5556C38.8571 15.3473 39.3388 14.1886 40.1961 13.3343C41.0534 12.48 42.2162 12 43.4286 12C44.641 12 45.8038 12.48 46.6611 13.3343C47.5184 14.1886 48 15.3473 48 16.5556V21.1111C48 22.3193 47.5184 23.478 46.6611 24.3324C45.8038 25.1867 44.641 25.6667 43.4286 25.6667C42.2162 25.6667 41.0534 25.1867 40.1961 24.3324C39.3388 23.478 38.8571 22.3193 38.8571 21.1111V16.5556ZM38.8571 43.8889C38.8571 42.6807 39.3388 41.522 40.1961 40.6676C41.0534 39.8133 42.2162 39.3333 43.4286 39.3333C44.641 39.3333 45.8038 39.8133 46.6611 40.6676C47.5184 41.522 48 42.6807 48 43.8889V48.4444C48 49.6527 47.5184 50.8114 46.6611 51.6657C45.8038 52.52 44.641 53 43.4286 53C42.2162 53 41.0534 52.52 40.1961 51.6657C39.3388 50.8114 38.8571 49.6527 38.8571 48.4444V43.8889ZM25.1429 46.1667H38.8571H25.1429ZM25.1429 18.8333H38.8571H25.1429ZM32 19.9722V18.8333V46.1667" fill="#D9D9D9" />
        <path d="M25.1429 46.1667H38.8571M25.1429 18.8333H38.8571M32 19.9722V18.8333V46.1667M16 16.5556C16 15.3473 16.4816 14.1886 17.3389 13.3343C18.1962 12.48 19.359 12 20.5714 12C21.7838 12 22.9466 12.48 23.8039 13.3343C24.6612 14.1886 25.1429 15.3473 25.1429 16.5556V21.1111C25.1429 22.3193 24.6612 23.478 23.8039 24.3324C22.9466 25.1867 21.7838 25.6667 20.5714 25.6667C19.359 25.6667 18.1962 25.1867 17.3389 24.3324C16.4816 23.478 16 22.3193 16 21.1111V16.5556ZM16 43.8889C16 42.6807 16.4816 41.522 17.3389 40.6676C18.1962 39.8133 19.359 39.3333 20.5714 39.3333C21.7838 39.3333 22.9466 39.8133 23.8039 40.6676C24.6612 41.522 25.1429 42.6807 25.1429 43.8889V48.4444C25.1429 49.6527 24.6612 50.8114 23.8039 51.6657C22.9466 52.52 21.7838 53 20.5714 53C19.359 53 18.1962 52.52 17.3389 51.6657C16.4816 50.8114 16 49.6527 16 48.4444V43.8889ZM38.8571 16.5556C38.8571 15.3473 39.3388 14.1886 40.1961 13.3343C41.0534 12.48 42.2162 12 43.4286 12C44.641 12 45.8038 12.48 46.6611 13.3343C47.5184 14.1886 48 15.3473 48 16.5556V21.1111C48 22.3193 47.5184 23.478 46.6611 24.3324C45.8038 25.1867 44.641 25.6667 43.4286 25.6667C42.2162 25.6667 41.0534 25.1867 40.1961 24.3324C39.3388 23.478 38.8571 22.3193 38.8571 21.1111V16.5556ZM38.8571 43.8889C38.8571 42.6807 39.3388 41.522 40.1961 40.6676C41.0534 39.8133 42.2162 39.3333 43.4286 39.3333C44.641 39.3333 45.8038 39.8133 46.6611 40.6676C47.5184 41.522 48 42.6807 48 43.8889V48.4444C48 49.6527 47.5184 50.8114 46.6611 51.6657C45.8038 52.52 44.641 53 43.4286 53C42.2162 53 41.0534 52.52 40.1961 51.6657C39.3388 50.8114 38.8571 49.6527 38.8571 48.4444V43.8889Z" stroke="#D9D9D9" stroke-width="0.5" stroke-linecap="round" stroke-linejoin="round" />
        <path d="M20 39V25M44 39V25" stroke="black" stroke-width="0.5" />
        <path d="M25.5349 6H24C23.4477 6 23 6.44772 23 7H26.5349C26.5349 6.44772 26.0872 6 25.5349 6Z" fill="#D12F26" />
        <path d="M41 6H39.4651C38.9128 6 38.4651 6.44772 38.4651 7H42C42 6.44772 41.5523 6 41 6Z" fill="#D12F26" />
        <path d="M25.5349 6H24C23.4477 6 23 6.44772 23 7H26.5349C26.5349 6.44772 26.0872 6 25.5349 6Z" stroke="black" stroke-width="0.5" />
        <path d="M41 6H39.4651C38.9128 6 38.4651 6.44772 38.4651 7H42C42 6.44772 41.5523 6 41 6Z" stroke="black" stroke-width="0.5" />
        <path d="M26 18H32M38 18H32M32 18V46H38H26" stroke="black" stroke-width="0.5" />
    </symbol>
    <symbol id="check" viewBox="0 0 14 11" fill="none" xmlns="http://www.w3.org/2000/svg">
        <path d="M12.6001 1.7998L4.90015 9.4998L1.40015 5.9998" stroke="currentColor" stroke-width="2" stroke-linecap="round" stroke-linejoin="round" />
    </symbol>
    <symbol id="arrow-right-v2" viewBox="0 0 16 16" fill="none" xmlns="http://www.w3.org/2000/svg">
        <path d="M6 4.5L9.35858 7.85858C9.43668 7.93668 9.43668 8.06332 9.35858 8.14142L6 11.5" stroke="currentColor" stroke-width="2" stroke-linecap="round" />
    </symbol>
    <symbol id="star" viewBox="0 0 20 20" fill="none" xmlns="http://www.w3.org/2000/svg">
        <g clip-path="url(#clip0_201_869)">
            <path d="M11.4399 2.87012L12.9066 5.82762C13.1066 6.23928 13.6399 6.63428 14.0899 6.70928L16.7474 7.15512C18.4474 7.44095 18.8474 8.68428 17.6224 9.91095L15.5558 11.9943C15.2058 12.3468 15.0141 13.0276 15.1224 13.5151L15.7141 16.0943C16.1808 18.136 15.1058 18.9251 13.3141 17.8585L10.8224 16.371C10.3724 16.1026 9.63075 16.1026 9.17242 16.371L6.68242 17.8585C4.89908 18.9251 3.81575 18.1268 4.28242 16.0943L4.87408 13.5151C4.98242 13.0276 4.79075 12.3468 4.44075 11.9943L2.37408 9.91095C1.15825 8.68345 1.54992 7.44095 3.24908 7.15512L5.90742 6.70928C6.34908 6.63428 6.88242 6.23928 7.08242 5.82762L8.54908 2.87012C9.34908 1.26595 10.6491 1.26595 11.4408 2.87012" stroke="currentColor" stroke-width="2" stroke-linecap="round" stroke-linejoin="round" />
        </g>
        <defs>
            <clipPath id="clip0_201_869">
                <rect width="20" height="20" fill="currentColor" />
            </clipPath>
        </defs>
    </symbol>
    <symbol id="burger" viewBox="0 0 24 24" fill="none" xmlns="http://www.w3.org/2000/svg">
        <path d="M3 6H21H3ZM3 12H21H3ZM3 18H21H3Z" fill="#404143" />
        <path d="M3 6H21M3 12H21M3 18H21" stroke="#404143" stroke-width="2" stroke-linecap="round" stroke-linejoin="round" />
    </symbol>
    <symbol id="close" viewBox="0 0 24 24" fill="none" xmlns="http://www.w3.org/2000/svg">
        <path fill-rule="evenodd" clip-rule="evenodd" d="M6.6129 5.2097L6.70711 5.29289L12 10.585L17.2929 5.29289C17.6834 4.90237 18.3166 4.90237 18.7071 5.29289C19.0676 5.65338 19.0953 6.22061 18.7903 6.6129L18.7071 6.70711L13.415 12L18.7071 17.2929C19.0976 17.6834 19.0976 18.3166 18.7071 18.7071C18.3466 19.0676 17.7794 19.0953 17.3871 18.7903L17.2929 18.7071L12 13.415L6.70711 18.7071C6.31658 19.0976 5.68342 19.0976 5.29289 18.7071C4.93241 18.3466 4.90468 17.7794 5.2097 17.3871L5.29289 17.2929L10.585 12L5.29289 6.70711C4.90237 6.31658 4.90237 5.68342 5.29289 5.29289C5.65338 4.93241 6.22061 4.90468 6.6129 5.2097Z" fill="#404143" />
    </symbol>
    <symbol id="filters" viewBox="0 0 20 16" fill="none" xmlns="http://www.w3.org/2000/svg">
        <path d="M12.126 5L1 5C0.447715 5 0 4.55228 0 4C0 3.44772 0.447715 3 1 3L12.126 3C12.5701 1.27477 14.1362 0 16 0C18.2091 0 20 1.79086 20 4C20 6.20914 18.2091 8 16 8C14.1362 8 12.5701 6.72523 12.126 5Z" fill="currentColor" />
        <path d="M4 8C1.79086 8 0 9.79086 0 12C0 14.2091 1.79086 16 4 16C5.86384 16 7.42994 14.7252 7.87398 13L19 13C19.5523 13 20 12.5523 20 12C20 11.4477 19.5523 11 19 11L7.87398 11C7.42994 9.27477 5.86384 8 4 8Z" fill="currentColor" />
    </symbol>
    <symbol id="step-1" viewBox="0 0 24 24" fill="none" xmlns="http://www.w3.org/2000/svg">
        <path d="M21.4403 11.0499L12.2503 20.2399C11.1244 21.3658 9.59747 21.9983 8.00529 21.9983C6.41311 21.9983 4.88613 21.3658 3.76029 20.2399C2.63445 19.1141 2.00195 17.5871 2.00195 15.9949C2.00195 14.4027 2.63445 12.8758 3.76029 11.7499L12.9503 2.55992C13.7009 1.80936 14.7188 1.3877 15.7803 1.3877C16.8417 1.3877 17.8597 1.80936 18.6103 2.55992C19.3609 3.31048 19.7825 4.32846 19.7825 5.38992C19.7825 6.45138 19.3609 7.46936 18.6103 8.21992L9.41029 17.4099C9.03501 17.7852 8.52602 17.996 7.99529 17.996C7.46456 17.996 6.95557 17.7852 6.58029 17.4099C6.20501 17.0346 5.99418 16.5256 5.99418 15.9949C5.99418 15.4642 6.20501 14.9552 6.58029 14.5799L15.0703 6.09992" stroke="#DEB600" stroke-width="1.5" stroke-linecap="round" stroke-linejoin="round" />
    </symbol>
    <symbol id="step-2" viewBox="0 0 24 24" fill="none" xmlns="http://www.w3.org/2000/svg">
        <path d="M5.25 4H18.75C19.5801 3.99995 20.3788 4.31755 20.9822 4.88767C21.5856 5.45779 21.948 6.23719 21.995 7.066L22 7.25V16.75C22.0001 17.5801 21.6824 18.3788 21.1123 18.9822C20.5422 19.5856 19.7628 19.948 18.934 19.995L18.75 20H5.25C4.41986 20.0001 3.62117 19.6824 3.01777 19.1123C2.41437 18.5422 2.052 17.7628 2.005 16.934L2 16.75V7.25C1.99995 6.41986 2.31755 5.62117 2.88767 5.01777C3.45779 4.41437 4.23719 4.052 5.066 4.005L5.25 4ZM20.5 9.373L12.35 13.663C12.258 13.7116 12.1568 13.7405 12.053 13.7479C11.9492 13.7553 11.845 13.7411 11.747 13.706L11.651 13.664L3.5 9.374V16.75C3.50002 17.1892 3.66517 17.6123 3.96268 17.9354C4.26019 18.2585 4.6683 18.4579 5.106 18.494L5.25 18.5H18.75C19.1893 18.5 19.6126 18.3347 19.9357 18.037C20.2588 17.7392 20.4581 17.3309 20.494 16.893L20.5 16.75V9.373ZM18.75 5.5H5.25C4.81081 5.50002 4.38768 5.66517 4.06461 5.96268C3.74154 6.26019 3.54214 6.6683 3.506 7.106L3.5 7.25V7.679L12 12.153L20.5 7.678V7.25C20.5 6.81065 20.3347 6.38739 20.037 6.06429C19.7392 5.74119 19.3309 5.5419 18.893 5.506L18.75 5.5Z" fill="#DEB600" />
    </symbol>
    <symbol id="step-3" viewBox="0 0 24 24" fill="none" xmlns="http://www.w3.org/2000/svg">
        <path fill-rule="evenodd" clip-rule="evenodd" d="M12 8.25C11.0054 8.25 10.0516 8.64509 9.34835 9.34835C8.64509 10.0516 8.25 11.0054 8.25 12C8.25 12.9946 8.64509 13.9484 9.34835 14.6517C10.0516 15.3549 11.0054 15.75 12 15.75C12.9946 15.75 13.9484 15.3549 14.6517 14.6517C15.3549 13.9484 15.75 12.9946 15.75 12C15.75 11.0054 15.3549 10.0516 14.6517 9.34835C13.9484 8.64509 12.9946 8.25 12 8.25ZM9.75 12C9.75 11.4033 9.98705 10.831 10.409 10.409C10.831 9.98705 11.4033 9.75 12 9.75C12.5967 9.75 13.169 9.98705 13.591 10.409C14.0129 10.831 14.25 11.4033 14.25 12C14.25 12.5967 14.0129 13.169 13.591 13.591C13.169 14.0129 12.5967 14.25 12 14.25C11.4033 14.25 10.831 14.0129 10.409 13.591C9.98705 13.169 9.75 12.5967 9.75 12Z" fill="#DEB600" />
        <path fill-rule="evenodd" clip-rule="evenodd" d="M11.975 1.25C11.53 1.25 11.159 1.25 10.855 1.27C10.5443 1.28294 10.2378 1.34714 9.94802 1.46C9.61427 1.59809 9.31099 1.80057 9.05551 2.05589C8.80002 2.3112 8.59733 2.61434 8.45902 2.948C8.31402 3.298 8.27502 3.668 8.25902 4.07C8.25742 4.21702 8.2185 4.36123 8.14591 4.48909C8.07332 4.61695 7.96944 4.72428 7.84402 4.801C7.7149 4.8715 7.56998 4.90803 7.42287 4.90716C7.27576 4.90628 7.13129 4.86803 7.00302 4.796C6.64702 4.608 6.30702 4.457 5.93102 4.407C5.57296 4.3599 5.20914 4.38379 4.86031 4.4773C4.51149 4.57081 4.1845 4.73212 3.89802 4.952C3.65579 5.14688 3.44733 5.38034 3.28102 5.643C3.11102 5.897 2.92502 6.218 2.70302 6.603L2.67802 6.647C2.45502 7.032 2.27002 7.353 2.13602 7.627C1.99602 7.913 1.88602 8.195 1.84602 8.507C1.75062 9.22999 1.9463 9.96127 2.39002 10.54C2.62102 10.841 2.92202 11.06 3.26202 11.274C3.38878 11.3489 3.49439 11.4549 3.56891 11.5819C3.64344 11.7089 3.68442 11.8528 3.68802 12C3.68442 12.1472 3.64344 12.2911 3.56891 12.4181C3.49439 12.5451 3.38878 12.6511 3.26202 12.726C2.92202 12.94 2.62202 13.159 2.39002 13.46C2.17014 13.7465 2.00883 14.0735 1.91532 14.4223C1.82181 14.7711 1.79792 15.1349 1.84502 15.493C1.88602 15.805 1.99502 16.087 2.13502 16.373C2.27002 16.647 2.45502 16.968 2.67802 17.353L2.70302 17.397C2.92502 17.782 3.11102 18.103 3.28102 18.357C3.45802 18.62 3.64802 18.857 3.89802 19.047C4.18443 19.2671 4.51138 19.4285 4.86021 19.5222C5.20903 19.6159 5.5729 19.64 5.93102 19.593C6.30702 19.543 6.64702 19.393 7.00302 19.204C7.13114 19.1321 7.27544 19.0939 7.42237 19.093C7.56931 19.0921 7.71405 19.1286 7.84302 19.199C7.96914 19.2751 8.07367 19.3823 8.14666 19.5102C8.21966 19.6382 8.25868 19.7827 8.26002 19.93C8.27502 20.332 8.31402 20.702 8.46002 21.052C8.59811 21.3857 8.80059 21.689 9.05591 21.9445C9.31122 22.2 9.61436 22.4027 9.94802 22.541C10.238 22.661 10.538 22.708 10.855 22.729C11.159 22.75 11.53 22.75 11.975 22.75H12.025C12.47 22.75 12.841 22.75 13.145 22.73C13.463 22.708 13.762 22.661 14.052 22.54C14.3858 22.4019 14.689 22.1994 14.9445 21.9441C15.2 21.6888 15.4027 21.3857 15.541 21.052C15.686 20.702 15.725 20.332 15.741 19.93C15.7425 19.7828 15.7813 19.6384 15.8539 19.5103C15.9265 19.3823 16.0305 19.2748 16.156 19.198C16.2852 19.1276 16.4302 19.0913 16.5773 19.0923C16.7244 19.0934 16.8688 19.1318 16.997 19.204C17.353 19.392 17.693 19.543 18.069 19.592C18.792 19.6874 19.5233 19.4917 20.102 19.048C20.352 18.856 20.542 18.62 20.719 18.357C20.889 18.103 21.075 17.782 21.297 17.397L21.322 17.353C21.545 16.968 21.73 16.647 21.864 16.373C22.004 16.087 22.114 15.804 22.154 15.493C22.2494 14.77 22.0537 14.0387 21.61 13.46C21.379 13.159 21.078 12.94 20.738 12.726C20.6113 12.6511 20.5056 12.5451 20.4311 12.4181C20.3566 12.2911 20.3156 12.1472 20.312 12C20.312 11.722 20.464 11.446 20.738 11.274C21.078 11.06 21.378 10.841 21.61 10.54C21.8299 10.2535 21.9912 9.92653 22.0847 9.5777C22.1782 9.22888 22.2021 8.86506 22.155 8.507C22.1074 8.19971 22.0094 7.90238 21.865 7.627C21.6943 7.29475 21.5132 6.96792 21.322 6.647L21.297 6.603C21.1143 6.27709 20.9216 5.95693 20.719 5.643C20.5527 5.38062 20.3442 5.14749 20.102 4.953C19.8156 4.73294 19.4887 4.57146 19.1398 4.47778C18.791 4.38409 18.4271 4.36004 18.069 4.407C17.693 4.457 17.353 4.607 16.997 4.796C16.8689 4.86786 16.7246 4.90601 16.5777 4.90688C16.4307 4.90776 16.286 4.87132 16.157 4.801C16.0312 4.72452 15.9269 4.6173 15.854 4.48942C15.7811 4.36154 15.7418 4.21721 15.74 4.07C15.725 3.668 15.686 3.298 15.54 2.948C15.4019 2.61425 15.1994 2.31097 14.9441 2.05549C14.6888 1.8 14.3857 1.59731 14.052 1.459C13.762 1.339 13.462 1.292 13.145 1.271C12.841 1.25 12.47 1.25 12.025 1.25H11.975ZM10.522 2.845C10.599 2.813 10.716 2.784 10.957 2.767C11.204 2.75 11.524 2.75 12 2.75C12.476 2.75 12.796 2.75 13.043 2.767C13.284 2.784 13.401 2.813 13.478 2.845C13.785 2.972 14.028 3.215 14.155 3.522C14.195 3.618 14.228 3.769 14.241 4.126C14.271 4.918 14.68 5.681 15.406 6.1C16.132 6.52 16.997 6.492 17.698 6.122C18.014 5.955 18.161 5.908 18.265 5.895C18.5936 5.85158 18.9259 5.94043 19.189 6.142C19.255 6.193 19.339 6.28 19.474 6.48C19.613 6.686 19.773 6.963 20.011 7.375C20.249 7.787 20.408 8.065 20.517 8.287C20.624 8.504 20.657 8.62 20.667 8.703C20.7104 9.03157 20.6216 9.36392 20.42 9.627C20.356 9.71 20.242 9.814 19.94 10.004C19.268 10.426 18.812 11.162 18.812 12C18.812 12.838 19.268 13.574 19.94 13.996C20.242 14.186 20.356 14.29 20.42 14.373C20.622 14.636 20.71 14.968 20.667 15.297C20.657 15.38 20.623 15.497 20.517 15.713C20.408 15.936 20.249 16.213 20.011 16.625C19.773 17.037 19.612 17.314 19.474 17.52C19.339 17.72 19.255 17.807 19.189 17.858C18.9259 18.0596 18.5936 18.1484 18.265 18.105C18.161 18.092 18.015 18.045 17.698 17.878C16.998 17.508 16.132 17.48 15.406 17.899C14.68 18.319 14.271 19.082 14.241 19.874C14.228 20.231 14.195 20.382 14.155 20.478C14.0922 20.6298 14.0001 20.7677 13.8839 20.8839C13.7677 21.0001 13.6298 21.0922 13.478 21.155C13.401 21.187 13.284 21.216 13.043 21.233C12.796 21.25 12.476 21.25 12 21.25C11.524 21.25 11.204 21.25 10.957 21.233C10.716 21.216 10.599 21.187 10.522 21.155C10.3702 21.0922 10.2323 21.0001 10.1161 20.8839C9.99997 20.7677 9.90784 20.6298 9.84502 20.478C9.80502 20.382 9.77202 20.231 9.75902 19.874C9.72902 19.082 9.32002 18.319 8.59402 17.9C7.86802 17.48 7.00302 17.508 6.30202 17.878C5.98602 18.045 5.83902 18.092 5.73502 18.105C5.40645 18.1484 5.0741 18.0596 4.81102 17.858C4.74502 17.807 4.66102 17.72 4.52602 17.52C4.33793 17.2272 4.15885 16.9287 3.98902 16.625C3.75102 16.213 3.59202 15.935 3.48302 15.713C3.37602 15.496 3.34302 15.38 3.33302 15.297C3.2896 14.9684 3.37845 14.6361 3.58002 14.373C3.64402 14.29 3.75802 14.186 4.06002 13.996C4.73202 13.574 5.18802 12.838 5.18802 12C5.18802 11.162 4.73202 10.426 4.06002 10.004C3.75802 9.814 3.64402 9.71 3.58002 9.627C3.37845 9.36392 3.2896 9.03157 3.33302 8.703C3.34302 8.62 3.37702 8.503 3.48302 8.287C3.59202 8.064 3.75102 7.787 3.98902 7.375C4.22702 6.963 4.38802 6.686 4.52602 6.48C4.66102 6.28 4.74502 6.193 4.81102 6.142C5.0741 5.94043 5.40645 5.85158 5.73502 5.895C5.83902 5.908 5.98502 5.955 6.30202 6.122C7.00202 6.492 7.86802 6.52 8.59402 6.1C9.32002 5.681 9.72902 4.918 9.75902 4.126C9.77202 3.769 9.80502 3.618 9.84502 3.522C9.97202 3.215 10.215 2.972 10.522 2.845Z" fill="#DEB600" />
    </symbol>
    <symbol id="step-4" viewBox="0 0 24 24" fill="none" xmlns="http://www.w3.org/2000/svg">
        <path fill-rule="evenodd" clip-rule="evenodd" d="M6.6129 5.2097L6.70711 5.29289L12 10.585L17.2929 5.29289C17.6834 4.90237 18.3166 4.90237 18.7071 5.29289C19.0676 5.65338 19.0953 6.22061 18.7903 6.6129L18.7071 6.70711L13.415 12L18.7071 17.2929C19.0976 17.6834 19.0976 18.3166 18.7071 18.7071C18.3466 19.0676 17.7794 19.0953 17.3871 18.7903L17.2929 18.7071L12 13.415L6.70711 18.7071C6.31658 19.0976 5.68342 19.0976 5.29289 18.7071C4.93241 18.3466 4.90468 17.7794 5.2097 17.3871L5.29289 17.2929L10.585 12L5.29289 6.70711C4.90237 6.31658 4.90237 5.68342 5.29289 5.29289C5.65338 4.93241 6.22061 4.90468 6.6129 5.2097Z" fill="#A6A6A6" />
    </symbol>
    <symbol id="step-5" viewBox="0 0 24 24" fill="none" xmlns="http://www.w3.org/2000/svg">
        <path d="M4.76002 10.5904C5.02523 10.6249 5.29328 10.5526 5.5052 10.3894C5.71712 10.2263 5.85554 9.98562 5.89002 9.7204C5.92449 9.45519 5.8522 9.18714 5.68905 8.97522C5.52589 8.7633 5.28523 8.62488 5.02002 8.5904L3.26002 8.1504C3.1317 8.11107 2.99679 8.09796 2.8633 8.11187C2.72982 8.12577 2.6005 8.16641 2.48305 8.23135C2.3656 8.29629 2.26242 8.3842 2.17966 8.48986C2.09691 8.59551 2.03627 8.71675 2.00135 8.84633C1.96644 8.97592 1.95796 9.11121 1.97644 9.24414C1.99491 9.37707 2.03995 9.50492 2.10888 9.62007C2.17781 9.73523 2.26921 9.83533 2.37764 9.91441C2.48607 9.9935 2.60931 10.05 2.74002 10.0804L4.50002 10.5504C4.58379 10.5784 4.67171 10.5919 4.76002 10.5904ZM8.62002 5.0004C8.67862 5.21856 8.80936 5.41046 8.99094 5.54483C9.17252 5.6792 9.39425 5.74814 9.62002 5.7404C9.70613 5.75423 9.7939 5.75423 9.88002 5.7404C10.1338 5.67019 10.3497 5.50269 10.4808 5.27427C10.6118 5.04585 10.6475 4.77496 10.58 4.5204L10.11 2.7604C10.0796 2.6297 10.0231 2.50646 9.94403 2.39803C9.86494 2.2896 9.76484 2.19819 9.64969 2.12927C9.53453 2.06034 9.40668 2.0153 9.27375 1.99682C9.14082 1.97835 9.00553 1.98682 8.87595 2.02174C8.74636 2.05665 8.62513 2.11729 8.51947 2.20005C8.41382 2.28281 8.3259 2.38598 8.26096 2.50343C8.19602 2.62088 8.15539 2.7502 8.14148 2.88369C8.12758 3.01717 8.14068 3.15209 8.18002 3.2804L8.62002 5.0004ZM13.45 15.0004C13.3566 14.9021 13.2441 14.8238 13.1195 14.7703C12.9949 14.7167 12.8607 14.6892 12.725 14.6892C12.5894 14.6892 12.4552 14.7167 12.3305 14.7703C12.2059 14.8238 12.0934 14.9021 12 15.0004L8.50002 18.5604C8.0885 18.9552 7.5403 19.1757 6.97002 19.1757C6.39974 19.1757 5.85153 18.9552 5.44002 18.5604C5.23744 18.3604 5.0766 18.1222 4.96682 17.8595C4.85704 17.5969 4.80051 17.3151 4.80051 17.0304C4.80051 16.7457 4.85704 16.4639 4.96682 16.2013C5.0766 15.9386 5.23744 15.7004 5.44002 15.5004L9.00002 12.0004C9.1047 11.9108 9.18972 11.8004 9.24974 11.6764C9.30977 11.5523 9.3435 11.4172 9.34882 11.2795C9.35414 11.1417 9.33093 11.0044 9.28065 10.8761C9.23038 10.7478 9.15412 10.6312 9.05667 10.5338C8.95921 10.4363 8.84267 10.36 8.71434 10.3098C8.58602 10.2595 8.44868 10.2363 8.31096 10.2416C8.17324 10.2469 8.03811 10.2807 7.91405 10.3407C7.78998 10.4007 7.67966 10.4857 7.59002 10.5904L4.00002 14.0804C3.6113 14.4691 3.30296 14.9306 3.09259 15.4385C2.88222 15.9463 2.77394 16.4907 2.77394 17.0404C2.77394 17.5901 2.88222 18.1345 3.09259 18.6423C3.30296 19.1502 3.6113 19.6117 4.00002 20.0004C4.38873 20.3891 4.8502 20.6975 5.35808 20.9078C5.86595 21.1182 6.41029 21.2265 6.96002 21.2265C7.50974 21.2265 8.05408 21.1182 8.56196 20.9078C9.06984 20.6975 9.5313 20.3891 9.92002 20.0004L13.45 16.4704C13.5515 16.3768 13.6325 16.2631 13.6879 16.1366C13.7433 16.0101 13.7719 15.8735 13.7719 15.7354C13.7719 15.5973 13.7433 15.4607 13.6879 15.3342C13.6325 15.2077 13.5515 15.094 13.45 15.0004ZM5.18002 6.5904C5.36628 6.77515 5.61768 6.8793 5.88002 6.8804C6.01162 6.88116 6.14209 6.85594 6.26392 6.80617C6.38576 6.75641 6.49658 6.68308 6.59002 6.5904C6.77627 6.40304 6.88081 6.14959 6.88081 5.8854C6.88081 5.62122 6.77627 5.36776 6.59002 5.1804L5.30002 3.8904C5.10872 3.72658 4.86264 3.64097 4.61096 3.65069C4.35929 3.66041 4.12055 3.76474 3.94245 3.94284C3.76436 4.12093 3.66003 4.35967 3.65031 4.61135C3.64058 4.86303 3.72619 5.1091 3.89002 5.3004L5.18002 6.5904ZM21.26 13.9204L19.5 13.4504C19.3696 13.4053 19.2312 13.3877 19.0937 13.3987C18.9561 13.4097 18.8223 13.449 18.7007 13.5143C18.5791 13.5795 18.4723 13.6692 18.387 13.7777C18.3018 13.8862 18.2399 14.0112 18.2053 14.1447C18.1707 14.2783 18.1641 14.4176 18.186 14.5539C18.2078 14.6902 18.2576 14.8204 18.3323 14.9365C18.4069 15.0525 18.5048 15.1519 18.6197 15.2283C18.7346 15.3047 18.8641 15.3565 19 15.3804L20.76 15.8504H21.02C21.2852 15.8849 21.5533 15.8126 21.7652 15.6494C21.9771 15.4863 22.1155 15.2456 22.15 14.9804C22.1845 14.7152 22.1122 14.4471 21.949 14.2352C21.7859 14.0233 21.5452 13.8849 21.28 13.8504L21.26 13.9204ZM15.38 19.0004C15.3453 18.8736 15.2859 18.7549 15.2053 18.6511C15.1247 18.5473 15.0244 18.4604 14.9101 18.3954C14.7959 18.3304 14.67 18.2885 14.5395 18.2722C14.4091 18.2559 14.2767 18.2655 14.15 18.3004C13.8962 18.3706 13.6803 18.5381 13.5493 18.7665C13.4182 18.9949 13.3825 19.2658 13.45 19.5204L13.92 21.2804C13.9786 21.4986 14.1094 21.6905 14.2909 21.8248C14.4725 21.9592 14.6943 22.0281 14.92 22.0204C15.0064 22.0302 15.0936 22.0302 15.18 22.0204C15.3077 21.9868 15.4274 21.9282 15.5324 21.848C15.6373 21.7678 15.7253 21.6677 15.7913 21.5533C15.8573 21.439 15.9 21.3127 15.917 21.1817C15.9339 21.0508 15.9247 20.9178 15.89 20.7904L15.38 19.0004ZM18.82 17.4304C18.6287 17.2666 18.3826 17.181 18.131 17.1907C17.8793 17.2004 17.6405 17.3047 17.4625 17.4828C17.2844 17.6609 17.18 17.8997 17.1703 18.1514C17.1606 18.403 17.2462 18.6491 17.41 18.8404L18.7 20.1304C18.8874 20.3167 19.1408 20.4212 19.405 20.4212C19.6692 20.4212 19.9227 20.3167 20.11 20.1304C20.2963 19.943 20.4008 19.6896 20.4008 19.4254C20.4008 19.1612 20.2963 18.9078 20.11 18.7204L18.82 17.4304ZM21.2 7.0004C21.2156 6.16884 20.9815 5.35171 20.528 4.6545C20.0745 3.9573 19.4225 3.41202 18.656 3.08908C17.8896 2.76614 17.0439 2.68035 16.2282 2.8428C15.4125 3.00525 14.6643 3.40847 14.08 4.0004L10.55 7.5604C10.4555 7.65561 10.3806 7.76851 10.3297 7.89266C10.2788 8.0168 10.2528 8.14976 10.2532 8.28394C10.2537 8.41812 10.2806 8.55089 10.3324 8.67468C10.3842 8.79847 10.4598 8.91085 10.555 9.0054C10.6502 9.09995 10.7631 9.17483 10.8873 9.22575C11.0114 9.27667 11.1444 9.30264 11.2786 9.30217C11.4127 9.30171 11.5455 9.27482 11.6693 9.22304C11.7931 9.17126 11.9055 9.09561 12 9.0004L15.5 5.4404C15.9115 5.04559 16.4597 4.82514 17.03 4.82514C17.6003 4.82514 18.1485 5.04559 18.56 5.4404C18.7626 5.64039 18.9234 5.87862 19.0332 6.14127C19.143 6.40391 19.1995 6.68574 19.1995 6.9704C19.1995 7.25507 19.143 7.53689 19.0332 7.79954C18.9234 8.06218 18.7626 8.30041 18.56 8.5004L15 12.0004C14.8138 12.1878 14.7092 12.4412 14.7092 12.7054C14.7092 12.9696 14.8138 13.223 15 13.4104C15.1874 13.5967 15.4408 13.7012 15.705 13.7012C15.9692 13.7012 16.2227 13.5967 16.41 13.4104L20 9.9204C20.7654 9.14075 21.196 8.09296 21.2 7.0004Z" fill="#DEB600" />
    </symbol>
    <symbol id="arrow-top" viewBox="0 0 24 24" fill="none" xmlns="http://www.w3.org/2000/svg">
        <path d="M6.5 14.5L11.1464 9.85355C11.3417 9.65829 11.6583 9.65829 11.8536 9.85355L16.5 14.5" stroke="#DEB600" stroke-width="1.5" stroke-linecap="round" />
    </symbol>
    <symbol id="success" viewBox="0 0 65 64" fill="none" xmlns="http://www.w3.org/2000/svg">
        <path d="M10 56V5C10 4.44772 10.4477 4 11 4H38.5V18H52.9C52.9552 18 53 18.0448 53 18.1V56C53 56.5523 52.5523 57 52 57H11C10.4477 57 10 56.5523 10 56Z" fill="#FFD40F" stroke="black" stroke-linecap="round"/>
        <path d="M15.5 26.5H19" stroke="black" stroke-linecap="round"/>
        <path d="M15.5 32H19" stroke="black" stroke-linecap="round"/>
        <path d="M15.5 37.5H19" stroke="black" stroke-linecap="round"/>
        <path d="M15.5 43H19" stroke="black" stroke-linecap="round"/>
        <path d="M15.5 48.5H19" stroke="black" stroke-linecap="round"/>
        <path d="M22.5 26.5H45.5" stroke="black" stroke-linecap="round"/>
        <path d="M22.5 32H45.5" stroke="black" stroke-linecap="round"/>
        <path d="M22.5 37.5H45.5" stroke="black" stroke-linecap="round"/>
        <path d="M22.5 43H45.5" stroke="black" stroke-linecap="round"/>
        <path d="M22.5 48.5H45.5" stroke="black" stroke-linecap="round"/>
        <path d="M52.8219 17.8281L38.6695 4.16362C38.606 4.10232 38.5 4.14731 38.5 4.23556V18H52.7525C52.8424 18 52.8866 17.8905 52.8219 17.8281Z" fill="#FFF3BE" stroke="black" stroke-linecap="round"/>
        <rect x="15" y="12.5" width="6" height="6" rx="0.5" stroke="black"/>
        <circle cx="47.5" cy="51" r="8" fill="white"/>
        <g clip-path="url(#clip0_310_4906)">
            <path fill-rule="evenodd" clip-rule="evenodd" d="M51.4833 48.1838C51.6004 48.3009 51.6661 48.4598 51.6661 48.6254C51.6661 48.7911 51.6004 48.9499 51.4833 49.0671L46.4025 54.1479C46.3438 54.2065 46.2741 54.2529 46.1974 54.2843C46.1206 54.3156 46.0384 54.3314 45.9555 54.3307C45.8726 54.33 45.7907 54.3129 45.7145 54.2802C45.6383 54.2475 45.5693 54.2 45.5117 54.1404L43.5092 52.0704C43.395 51.9511 43.3326 51.7914 43.3358 51.6263C43.339 51.4611 43.4074 51.304 43.5261 51.1891C43.6448 51.0743 43.8041 51.0111 43.9693 51.0134C44.1345 51.0156 44.292 51.0832 44.4075 51.2013L45.9683 52.8146L50.6 48.1838C50.7172 48.0667 50.876 48.001 51.0417 48.001C51.2073 48.001 51.3661 48.0667 51.4833 48.1838Z" fill="#FFD40F"/>
        </g>
        <defs>
            <clipPath id="clip0_310_4906">
                <rect width="10" height="10" fill="white" transform="translate(41.5 46)"/>
            </clipPath>
        </defs>
    </symbol>
    <svg id="arrow-up" viewBox="0 0 24 24" fill="none" xmlns="http://www.w3.org/2000/svg">
        <path d="M5 15L11 8L18 15" stroke="#687281" stroke-width="2" stroke-linecap="round" stroke-linejoin="round" />
    </svg>
</svg>
