<svg width="64" height="64" viewBox="0 0 64 64" fill="none" xmlns="http://www.w3.org/2000/svg">
<rect width="64" height="64" fill="#181818"/>
<path d="M23.3756 46V16.8H32.5356C34.3756 16.8 35.9756 17.16 37.3356 17.88C38.6956 18.5733 39.749 19.56 40.4956 20.84C41.269 22.12 41.6556 23.6267 41.6556 25.36C41.6556 27.3067 41.149 29 40.1356 30.44C39.149 31.8533 37.8023 32.8533 36.0956 33.44L42.0556 46H37.1356L31.8156 34H27.6956V46H23.3756ZM27.6956 30.2H32.5356C33.9756 30.2 35.1223 29.7733 35.9756 28.92C36.829 28.04 37.2556 26.88 37.2556 25.44C37.2556 23.9467 36.829 22.7733 35.9756 21.92C35.1223 21.0667 33.9756 20.64 32.5356 20.64H27.6956V30.2Z" fill="#81FA63"/>
</svg>
