<svg width="100" height="100" viewBox="0 0 100 100" fill="none" xmlns="http://www.w3.org/2000/svg">
<rect x="0.5" y="0.5" width="99" height="99" rx="11.5" fill="white" fill-opacity="0.1" stroke="url(#paint0_linear_49_93)"/>
<path d="M64.1248 27.3506C61.199 29.2804 60.4869 30.0655 58.0285 32.5289C57.5843 32.9746 57.1396 33.4204 56.6944 33.8663C55.6272 34.9365 54.3641 36.2033 52.8657 37.7049L45.7223 36.0337L43.0363 35.4054L23.4089 30.8137L23.3815 30.8083C22.9344 30.7351 22.4757 30.8144 22.0791 31.0333C21.6824 31.2523 21.371 31.5982 21.1946 32.0155C21.0183 32.4328 20.9874 32.8973 21.1068 33.3343C21.2263 33.7713 21.4892 34.1555 21.8532 34.425L39.8812 50.691C38.3534 52.2165 36.7182 53.8484 34.9754 55.5868C34.5741 55.9984 34.1863 56.3896 33.8009 56.7755C32.8033 57.7744 31.35 58.1698 29.982 57.8209L24.1647 56.3374C23.8469 56.244 23.5065 56.2627 23.2009 56.3904C22.8952 56.5181 22.6427 56.7471 22.4858 57.0389C22.3288 57.3306 22.277 57.6675 22.339 57.993C22.401 58.3184 22.573 58.6126 22.8262 58.8263C22.8555 58.851 27.4811 63.485 28.9553 64.9621C28.5115 66.1145 28.1357 67.2699 27.838 68.2758C27.6739 68.826 27.5347 69.3315 27.4187 69.7673L27.4187 69.7706C27.4057 70.1595 27.4727 70.547 27.6156 70.9089C27.7585 71.2709 27.9743 71.5996 28.2494 71.8748C28.5246 72.1499 28.8533 72.3657 29.2153 72.5085C29.5772 72.6514 29.9646 72.7185 30.3536 72.7055L30.3569 72.7055C30.7927 72.5895 31.2982 72.4503 31.8484 72.2862C32.8543 71.9885 34.0097 71.6128 35.1622 71.1689C36.6392 72.6431 41.2733 77.2688 41.2979 77.298C41.5116 77.5512 41.8058 77.7232 42.1313 77.7852C42.4567 77.8472 42.7936 77.7954 43.0854 77.6385C43.3771 77.4815 43.6061 77.2291 43.7338 76.9234C43.8615 76.6177 43.8802 76.2774 43.7868 75.9595L42.3033 70.1422C41.9544 68.7742 42.3498 67.3209 43.3487 66.3233C43.7346 65.9379 44.1258 65.5501 44.5374 65.1488C46.2784 63.4034 47.9103 61.7681 49.4332 60.243L65.6992 78.271C65.9692 78.6342 66.3533 78.8964 66.79 79.0153C67.2267 79.1343 67.6907 79.1032 68.1076 78.927C68.5245 78.7508 68.8703 78.4398 69.0894 78.0437C69.3084 77.6477 69.3882 77.1895 69.3159 76.7427L69.3105 76.7153L64.7189 57.0879L64.0905 54.4019L62.4194 47.2586C63.9209 45.7601 65.1877 44.497 66.258 43.4299C66.7038 42.984 67.1496 42.5394 67.5954 42.0958C70.0588 39.6374 70.8439 38.9252 72.7736 35.9995C74.5184 33.3541 76.5708 28.9858 73.8752 26.249C71.1384 23.5534 66.7701 25.6058 64.1248 27.3506Z" fill="url(#paint1_linear_49_93)"/>
<defs>
<linearGradient id="paint0_linear_49_93" x1="50" y1="0" x2="50" y2="100" gradientUnits="userSpaceOnUse">
<stop stop-color="white"/>
<stop offset="1" stop-color="white" stop-opacity="0.4"/>
</linearGradient>
<linearGradient id="paint1_linear_49_93" x1="39.5" y1="25" x2="40" y2="79.5" gradientUnits="userSpaceOnUse">
<stop stop-color="white"/>
<stop offset="1" stop-color="white" stop-opacity="0.5"/>
</linearGradient>
</defs>
</svg>
