<svg width="100" height="100" viewBox="0 0 100 100" fill="none" xmlns="http://www.w3.org/2000/svg">
<rect x="0.5" y="0.5" width="99" height="99" rx="11.5" fill="white" fill-opacity="0.1" stroke="url(#paint0_linear_49_92)"/>
<path fill-rule="evenodd" clip-rule="evenodd" d="M32 26C28.6863 26 26 28.6863 26 32V48.5H48V26H32ZM48 50.5H26V67C26 70.3137 28.6863 73 32 73H48V50.5ZM50 50.5H72V67C72 70.3137 69.3137 73 66 73H50V50.5ZM72 48.5H50V26H66C69.3137 26 72 28.6863 72 32V48.5ZM37.7503 40.0833H34.8337C34.5243 40.0833 34.2275 39.9603 34.0087 39.7416C33.79 39.5228 33.667 39.226 33.667 38.9166C33.667 38.6072 33.79 38.3104 34.0087 38.0917C34.2275 37.8729 34.5243 37.75 34.8337 37.75H37.7503V34.8333C37.7503 34.5239 37.8733 34.2271 38.092 34.0083C38.3108 33.7896 38.6076 33.6666 38.917 33.6666C39.2264 33.6666 39.5232 33.7896 39.7419 34.0083C39.9607 34.2271 40.0837 34.5239 40.0837 34.8333V37.75H43.0003C43.3097 37.75 43.6065 37.8729 43.8253 38.0917C44.044 38.3104 44.167 38.6072 44.167 38.9166C44.167 39.226 44.044 39.5228 43.8253 39.7416C43.6065 39.9603 43.3097 40.0833 43.0003 40.0833H40.0837V43C40.0837 43.3094 39.9607 43.6062 39.7419 43.8249C39.5232 44.0437 39.2264 44.1666 38.917 44.1666C38.6076 44.1666 38.3108 44.0437 38.092 43.8249C37.8733 43.6062 37.7503 43.3094 37.7503 43V40.0833ZM40.5659 61.6667L42.6285 59.604C42.74 59.4963 42.8289 59.3677 42.89 59.2253C42.9511 59.083 42.9833 58.9299 42.9846 58.775C42.986 58.6201 42.9565 58.4664 42.8978 58.323C42.8391 58.1797 42.7526 58.0494 42.643 57.9399C42.5335 57.8304 42.4031 57.7437 42.2599 57.6851C42.1165 57.6264 41.9628 57.5969 41.8079 57.5982C41.653 57.5996 41.4999 57.6318 41.3576 57.6929C41.2152 57.7541 41.0864 57.843 40.9789 57.9544L38.9162 60.017L36.8535 57.9544C36.746 57.843 36.6172 57.7541 36.4748 57.6929C36.3325 57.6318 36.1794 57.5996 36.0245 57.5982C35.8696 57.5969 35.7159 57.6264 35.5725 57.6851C35.4292 57.7437 35.299 57.8304 35.1894 57.9399C35.0799 58.0494 34.9933 58.1797 34.9346 58.323C34.8759 58.4664 34.8464 58.6201 34.8477 58.775C34.8491 58.9299 34.8813 59.083 34.9424 59.2253C35.0036 59.3677 35.0925 59.4963 35.2039 59.604L37.2665 61.6667L35.2039 63.7294C35.0925 63.8369 35.0036 63.9657 34.9424 64.1081C34.8813 64.2504 34.8491 64.4035 34.8477 64.5584C34.8464 64.7133 34.8759 64.8669 34.9346 65.0103C34.9933 65.1536 35.0799 65.284 35.1894 65.3935C35.299 65.5031 35.4292 65.5896 35.5725 65.6483C35.7159 65.707 35.8696 65.7365 36.0245 65.7351C36.1794 65.7338 36.3325 65.7016 36.4748 65.6405C36.6172 65.5794 36.746 65.4905 36.8535 65.379L38.9162 63.3164L40.9789 65.379C41.0864 65.4905 41.2152 65.5794 41.3576 65.6405C41.4999 65.7016 41.653 65.7338 41.8079 65.7351C41.9628 65.7365 42.1165 65.707 42.2599 65.6483C42.4031 65.5896 42.5335 65.5031 42.643 65.3935C42.7526 65.284 42.8391 65.1536 42.8978 65.0103C42.9565 64.8669 42.986 64.7133 42.9846 64.5584C42.9833 64.4035 42.9511 64.2504 42.89 64.1081C42.8289 63.9657 42.74 63.8369 42.6285 63.7294L40.5659 61.6667ZM65.1663 40.0833H56.9997C56.6903 40.0833 56.3935 39.9604 56.1747 39.7416C55.956 39.5229 55.833 39.2261 55.833 38.9167C55.833 38.6073 55.956 38.3105 56.1747 38.0917C56.3935 37.873 56.6903 37.75 56.9997 37.75H65.1663C65.4757 37.75 65.7725 37.873 65.9913 38.0917C66.21 38.3105 66.333 38.6073 66.333 38.9167C66.333 39.2261 66.21 39.5229 65.9913 39.7416C65.7725 39.9604 65.4757 40.0833 65.1663 40.0833ZM65.1663 58.1666H56.9997C56.6903 58.1666 56.3935 58.2896 56.1747 58.5083C55.956 58.7271 55.833 59.0239 55.833 59.3333C55.833 59.6427 55.956 59.9395 56.1747 60.1582C56.3935 60.377 56.6903 60.5 56.9997 60.5H65.1663C65.4757 60.5 65.7725 60.377 65.9913 60.1582C66.21 59.9395 66.333 59.6427 66.333 59.3333C66.333 59.0239 66.21 58.7271 65.9913 58.5083C65.7725 58.2896 65.4757 58.1666 65.1663 58.1666ZM56.9997 62.8334H65.1663C65.4757 62.8334 65.7725 62.9563 65.9913 63.1751C66.21 63.3938 66.333 63.6906 66.333 64C66.333 64.3094 66.21 64.6062 65.9913 64.825C65.7725 65.0437 65.4757 65.1667 65.1663 65.1667H56.9997C56.6903 65.1667 56.3935 65.0437 56.1747 64.825C55.956 64.6062 55.833 64.3094 55.833 64C55.833 63.6906 55.956 63.3938 56.1747 63.1751C56.3935 62.9563 56.6903 62.8334 56.9997 62.8334Z" fill="url(#paint1_linear_49_92)"/>
<defs>
<linearGradient id="paint0_linear_49_92" x1="50" y1="0" x2="50" y2="100" gradientUnits="userSpaceOnUse">
<stop stop-color="white"/>
<stop offset="1" stop-color="white" stop-opacity="0.4"/>
</linearGradient>
<linearGradient id="paint1_linear_49_92" x1="49" y1="26" x2="49" y2="73" gradientUnits="userSpaceOnUse">
<stop stop-color="white"/>
<stop offset="1" stop-color="white" stop-opacity="0.5"/>
</linearGradient>
</defs>
</svg>
