<svg width="100" height="100" viewBox="0 0 100 100" fill="none" xmlns="http://www.w3.org/2000/svg">
<rect x="0.5" y="0.5" width="99" height="99" rx="11.5" fill="white" fill-opacity="0.1" stroke="url(#paint0_linear_49_91)"/>
<path fill-rule="evenodd" clip-rule="evenodd" d="M79.9894 49.2362C79.9904 49.276 79.9913 49.3159 79.9926 49.3562C79.9978 49.5706 80.0004 49.7864 80.0004 50.0008V50.0021C80.0004 50.2579 79.9978 50.5137 79.99 50.7669L79.9862 50.8767C79.981 51.0989 79.9732 51.3198 79.9616 51.5394C79.961 51.5439 79.9607 51.5485 79.9603 51.553C79.96 51.5575 79.9597 51.562 79.959 51.5666C79.5722 58.971 76.457 65.9699 71.2145 71.2131C65.972 76.4563 58.9735 79.5724 51.5691 79.9603C51.564 79.9603 51.5588 79.9607 51.5537 79.961C51.5485 79.9613 51.5433 79.9616 51.5381 79.9616C51.3211 79.9733 51.1015 79.981 50.8806 79.9875C50.8563 79.9875 50.8319 79.9886 50.8069 79.9897C50.7934 79.9903 50.7796 79.9909 50.7656 79.9913C50.5176 79.9978 50.267 80.0017 50.0176 80.0017H50.0008C45.6754 80.009 41.3998 79.0786 37.4685 77.2746C37.44 77.2607 37.411 77.2473 37.3819 77.2338C37.3621 77.2246 37.3423 77.2155 37.3225 77.2061C37.2218 77.1596 37.1197 77.1105 37.0189 77.0614C36.8652 76.989 36.7115 76.9141 36.5603 76.8379C36.5404 76.829 36.521 76.8191 36.5022 76.8082C30.0949 73.5945 25.0558 68.1854 22.3034 61.5668C22.2621 61.4712 22.2233 61.373 22.1845 61.2749C22.1445 61.1793 22.1057 61.0837 22.0683 60.9855C22.0153 60.8524 21.9636 60.7181 21.9132 60.5824C21.894 60.5286 21.8735 60.4748 21.853 60.421L21.8525 60.4197C21.7918 60.2556 21.7324 60.0915 21.6755 59.9288C21.6728 59.9216 21.6706 59.9143 21.6691 59.9068C20.9851 57.9472 20.5084 55.9212 20.2467 53.8622L20.2235 53.7046C20.2106 53.609 20.2015 53.5134 20.1925 53.4165C20.1878 53.368 20.1825 53.3199 20.1772 53.2719C20.1722 53.2266 20.1672 53.1814 20.1628 53.1361C20.1486 53.0044 20.1369 52.8726 20.1253 52.7409C20.115 52.6375 20.1059 52.5329 20.0982 52.4295C20.0882 52.3156 20.0806 52.2005 20.0731 52.0865L20.0723 52.0756C20.0696 52.0323 20.0668 51.9892 20.0639 51.9463C20.0586 51.866 20.0533 51.786 20.0491 51.7061C20.0439 51.6014 20.0388 51.4981 20.0323 51.3934C20.0258 51.2462 20.0207 51.0989 20.0168 50.9516L20.009 50.701C20.0026 50.4685 20 50.2347 20 50.0008C20 49.0449 20.0375 48.2116 20.1176 47.3422C20.754 40.1978 23.9288 33.5178 29.0666 28.5127C34.2044 23.5077 40.9652 20.5088 48.1238 20.0594C48.1399 20.0594 48.1539 20.0584 48.1696 20.0573L48.1755 20.0568L48.6896 20.0297C48.7396 20.0277 48.7899 20.026 48.8406 20.0243C48.8869 20.0228 48.9334 20.0212 48.9803 20.0194C49.0383 20.0181 49.0962 20.0161 49.154 20.0142C49.2109 20.0122 49.2676 20.0103 49.3239 20.009C49.5487 20.0039 49.7748 20 50.0009 20C50.2889 20 50.5757 20.0065 50.8625 20.0142L51.0925 20.022C51.3121 20.0297 51.5343 20.0413 51.7539 20.053C51.825 20.0568 51.896 20.0607 51.9684 20.0672C52.2241 20.0827 52.4799 20.1021 52.7331 20.1253C52.7467 20.1266 52.7602 20.1276 52.7737 20.1285C52.7873 20.1295 52.8009 20.1305 52.8145 20.1318C59.7976 20.7909 66.3291 23.8756 71.2743 28.8498C76.2194 33.824 79.2658 40.3735 79.8841 47.3603L79.8919 47.4494C79.9048 47.6044 79.9177 47.7607 79.928 47.9158L79.9358 48.0566C79.9513 48.2762 79.9616 48.4971 79.972 48.718C79.9771 48.8498 79.9823 48.9828 79.9862 49.1146C79.9875 49.1551 79.9884 49.1956 79.9894 49.2362ZM49.8028 76.0393C49.8685 76.0407 49.9344 76.0421 50.0008 76.0421C53.897 76.0414 57.7433 75.1666 61.2565 73.4821C64.7697 71.7976 67.8602 69.3464 70.3003 66.309C72.7404 63.2717 74.468 59.7255 75.3557 55.9319C76.2435 52.1382 76.2688 48.1937 75.4298 44.389C75.4931 44.6745 70.1719 45.5155 69.6733 45.5633C68.6617 45.708 67.6347 45.708 66.6232 45.5633C65.0781 45.261 64.4567 44.2075 63.7344 42.9833C63.7067 42.9362 63.6787 42.8889 63.6506 42.8413C63.0137 41.7626 62.2502 40.9979 60.899 41.2214C59.8773 41.39 59.2233 42.578 58.5598 43.7832C57.5967 45.5328 56.6136 47.3187 54.4565 46.0749C53.362 45.4448 52.7055 44.1401 52.1355 43.0072C52.0569 42.851 51.98 42.6981 51.9037 42.5507C51.4733 41.6782 50.9955 40.8299 50.4724 40.0096C50.0933 39.4614 49.8776 38.8169 49.8504 38.1509C49.8232 37.485 49.9855 36.825 50.3186 36.2477C51.0109 34.9566 52.1826 34.0903 53.353 33.2248C54.6243 32.2848 55.8942 31.3458 56.5467 29.8646C57.1098 28.5857 56.6687 27.6373 56.2079 26.6462C55.9085 26.0025 55.6008 25.3408 55.5545 24.559C52.1109 23.808 48.5506 23.7637 45.0894 24.4288C41.6281 25.094 38.3378 26.4547 35.4178 28.4285C32.4977 30.4024 30.0087 32.9484 28.1013 35.9123C26.194 38.8762 24.908 42.1964 24.3213 45.6718C25.5229 45.6607 26.7216 45.7899 27.8933 46.0568C28.9302 46.3266 29.8365 46.8552 30.7464 47.3858C31.1606 47.6274 31.5756 47.8694 32.004 48.0876C33.2595 48.7291 34.6241 48.5378 35.9694 48.3491C36.3252 48.2992 36.6798 48.2495 37.0306 48.2155C38.9416 48.0248 40.8645 47.9837 42.7819 48.0927C43.3132 48.1187 43.8427 48.1726 44.3683 48.2542C44.606 48.2943 44.8424 48.3434 45.075 48.4041C46.9256 48.8873 49.221 49.7114 50.47 51.2485C50.9851 51.9405 51.3291 52.7446 51.4736 53.5951C51.6182 54.4455 51.5593 55.3181 51.3017 56.1415C50.7205 57.9887 49.7945 59.7091 48.5728 61.2116C48.1448 61.7647 47.6622 62.285 47.1792 62.8058C46.4529 63.5889 45.7255 64.3732 45.1812 65.272C43.9119 67.3679 43.6561 69.8056 45.0457 71.911C45.7013 72.85 46.4951 73.6844 47.4003 74.3859C47.7672 74.6844 48.1444 74.9712 48.5281 75.2476C48.7314 75.3932 48.9363 75.537 49.143 75.6791C49.1739 75.7002 49.2184 75.7371 49.2694 75.7793C49.4024 75.8893 49.5797 76.036 49.674 76.0369C49.7169 76.0375 49.7598 76.0384 49.8028 76.0393ZM66.6485 49.9936C66.1443 49.9955 65.641 50.0374 65.1435 50.1189C63.349 50.3574 61.6024 50.8725 59.9657 51.6459C59.5961 51.8338 59.2378 52.0427 58.8794 52.2515C58.4397 52.5077 58 52.7639 57.5396 52.9817C57.1668 53.1577 56.7531 53.2534 56.3405 53.3487C55.8209 53.4688 55.3033 53.5885 54.8719 53.8679C54.3731 54.1758 54.0119 54.6638 53.863 55.2308C53.6124 56.2966 54.3126 57.1427 55.1936 57.6311C55.5655 57.837 55.9386 58.0411 56.3116 58.2451L56.3125 58.2456C57.2261 58.7452 58.1396 59.2447 59.0356 59.773C59.2064 59.8738 59.3806 59.9827 59.558 60.0937L59.5582 60.0938C60.4874 60.6751 61.5064 61.3124 62.6127 61.141C63.3973 61.019 64.0946 60.4052 64.7084 59.8649C64.8223 59.7646 64.9333 59.6669 65.0414 59.5753C65.931 58.8013 66.7764 57.978 67.5735 57.1091C67.8233 56.8447 68.1058 56.5767 68.396 56.3012C69.2318 55.5083 70.132 54.654 70.5021 53.6482C70.6336 53.2023 70.6361 52.7283 70.5092 52.2811C70.3823 51.8339 70.1312 51.4318 69.7852 51.1214C69.3643 50.7332 68.8699 50.4334 68.3311 50.2397C67.7923 50.046 67.2202 49.9623 66.6485 49.9936ZM52.0181 66.5345C50.3064 65.3111 48.0585 67.09 47.264 69.0071C46.5729 70.6788 47.4242 72.2148 49.1346 72.7083C50.09 72.9816 51.1106 72.9145 52.0219 72.5184C54.1238 71.5275 53.9106 69.0885 52.8035 67.3845C52.5971 67.0546 52.3307 66.7663 52.0181 66.5345Z" fill="url(#paint1_linear_49_91)"/>
<defs>
<linearGradient id="paint0_linear_49_91" x1="50" y1="0" x2="50" y2="100" gradientUnits="userSpaceOnUse">
<stop stop-color="white"/>
<stop offset="1" stop-color="white" stop-opacity="0.4"/>
</linearGradient>
<linearGradient id="paint1_linear_49_91" x1="50.0002" y1="20" x2="50.0002" y2="80.0018" gradientUnits="userSpaceOnUse">
<stop stop-color="white"/>
<stop offset="1" stop-color="white" stop-opacity="0.5"/>
</linearGradient>
</defs>
</svg>
